<svg width="21" height="15" viewBox="0 0 21 15" fill="none" xmlns="http://www.w3.org/2000/svg">
<g clip-path="url(#clip0_6_283)">
<rect width="20" height="13.5" transform="translate(0.03125 0.984375)" fill="#FFDC06"/>
<path d="M12.7812 1.24453C12.612 1.4166 12.5172 1.64824 12.5172 1.88953C12.5172 2.13083 12.612 2.36247 12.7812 2.53453L17.0312 6.81453H0.931191C0.802996 6.80111 0.673412 6.81478 0.550837 6.85465C0.428262 6.89452 0.315433 6.9597 0.219663 7.04597C0.123893 7.13224 0.047319 7.23767 -0.00509539 7.35542C-0.0575098 7.47318 -0.0845947 7.60064 -0.0845947 7.72953C-0.0845947 7.85843 -0.0575098 7.98589 -0.00509539 8.10364C0.047319 8.2214 0.123893 8.32683 0.219663 8.4131C0.315433 8.49937 0.428262 8.56455 0.550837 8.60442C0.673412 8.64429 0.802996 8.65795 0.931191 8.64453H17.0312L12.7712 12.9845C12.6044 13.1578 12.5112 13.389 12.5112 13.6295C12.5112 13.8701 12.6044 14.1012 12.7712 14.2745C12.8539 14.3574 12.9521 14.4231 13.0602 14.468C13.1683 14.5128 13.2842 14.5359 13.4012 14.5359C13.5182 14.5359 13.6341 14.5128 13.7422 14.468C13.8503 14.4231 13.9485 14.3574 14.0312 14.2745V14.2745L19.7712 8.38453C19.8492 8.29832 19.9133 8.20048 19.9612 8.09453C20.0093 7.98423 20.0332 7.86487 20.0312 7.74453C20.0321 7.62599 20.0097 7.50843 19.965 7.3986C19.9204 7.28877 19.8545 7.18883 19.7712 7.10453L14.0312 1.26453C13.8726 1.10221 13.6579 1.00662 13.4311 0.997329C13.2043 0.988035 12.9826 1.06573 12.8112 1.21453L12.7812 1.24453Z" fill="black"/>
</g>
<defs>
<clipPath id="clip0_6_283">
<rect width="20" height="13.5" fill="white" transform="translate(0.03125 0.984375)"/>
</clipPath>
</defs>
</svg>
