<svg width="36" height="37" viewBox="0 0 36 37" fill="none" xmlns="http://www.w3.org/2000/svg">
<g clip-path="url(#clip0_6_314)">
<path d="M32.14 0.515625H3.86C2.83626 0.515625 1.85446 0.922302 1.13057 1.64619C0.406677 2.37008 0 3.35189 0 4.37562L0 32.6556C0 33.6794 0.406677 34.6612 1.13057 35.3851C1.85446 36.1089 2.83626 36.5156 3.86 36.5156H32.14C33.1637 36.5156 34.1455 36.1089 34.8694 35.3851C35.5933 34.6612 36 33.6794 36 32.6556V4.37562C36 3.35189 35.5933 2.37008 34.8694 1.64619C34.1455 0.922302 33.1637 0.515625 32.14 0.515625V0.515625ZM28.21 13.2756V13.9556C28.2245 15.9119 27.8534 17.8518 27.1178 19.6645C26.3823 21.4773 25.2967 23.1273 23.9232 24.5203C22.5497 25.9133 20.9151 27.022 19.1129 27.7831C17.3107 28.5441 15.3762 28.9425 13.42 28.9556C13.3504 28.9656 13.2796 28.9656 13.21 28.9556C10.3425 28.9633 7.53362 28.1439 5.12 26.5956C5.54159 26.6439 5.96566 26.6672 6.39 26.6656C8.7854 26.6808 11.1153 25.8842 13 24.4056C11.8868 24.4018 10.8035 24.0456 9.90526 23.3881C9.00703 22.7306 8.34007 21.8056 8 20.7456C8.78802 20.8828 9.59634 20.8487 10.37 20.6456C9.19123 20.3983 8.13304 19.754 7.37223 18.8203C6.61143 17.8866 6.19411 16.72 6.19 15.5156V15.4456C6.9148 15.8559 7.72769 16.0857 8.56 16.1156C7.83928 15.6325 7.24873 14.9792 6.84059 14.2135C6.43245 13.4478 6.2193 12.5933 6.22 11.7256C6.21338 10.7913 6.45865 9.8724 6.93 9.06563C8.261 10.6825 9.91584 12.0028 11.788 12.9415C13.6601 13.8801 15.7081 14.4164 17.8 14.5156C17.5339 13.3826 17.6496 12.1935 18.1291 11.133C18.6086 10.0726 19.425 9.20027 20.4514 8.6517C21.4778 8.10314 22.6567 7.90907 23.8048 8.09966C24.9529 8.29026 26.0059 8.85484 26.8 9.70562C27.9693 9.50007 29.0953 9.0977 30.13 8.51562C29.7383 9.73106 28.9171 10.7621 27.82 11.4156C28.8548 11.2907 29.8656 11.0144 30.82 10.5956C30.1094 11.6314 29.2266 12.5379 28.21 13.2756V13.2756Z" fill="white"/>
</g>
<defs>
<clipPath id="clip0_6_314">
<rect width="36" height="36" fill="white" transform="translate(0 0.515625)"/>
</clipPath>
</defs>
</svg>
