<svg width="1440" height="708" viewBox="0 0 1440 708" fill="none" xmlns="http://www.w3.org/2000/svg">
<g clip-path="url(#clip0_6_6)">
<path d="M0 1593C488.772 1593 885 1196.77 885 708C885 219.228 488.772 -177 0 -177C-488.772 -177 -885 219.228 -885 708C-885 1196.77 -488.772 1593 0 1593Z" fill="url(#paint0_radial_6_6)"/>
</g>
<path d="M983.931 324.248C1027.98 367.963 1100.92 383.598 1170.23 368.04C1184.73 364.787 1199.39 357.806 1214.53 345.604C1296.84 279.26 1341.36 121.241 1230.22 77.359C1192.37 62.4058 1120.15 64.8744 1090.76 98.2266C1067.46 124.649 1091.89 183.896 1080.28 194.259C1074.12 199.762 1068.16 203.015 1062.34 204.789C1024.3 216.412 1004.91 199.595 980.347 211.899C961.717 221.247 952.349 243.863 951.15 260.732C949.108 289.687 970.518 310.927 983.931 324.248Z" fill="#231F20"/>
<mask id="mask0_6_6" style="mask-type:luminance" maskUnits="userSpaceOnUse" x="951" y="68" width="346" height="306">
<path d="M983.931 324.248C1027.98 367.963 1100.92 383.598 1170.23 368.04C1184.73 364.787 1199.39 357.806 1214.53 345.604C1296.84 279.26 1341.36 121.241 1230.22 77.359C1192.37 62.4058 1120.15 64.8744 1090.76 98.2266C1067.46 124.649 1091.89 183.896 1080.28 194.259C1074.12 199.762 1068.16 203.015 1062.34 204.789C1024.3 216.412 1004.91 199.595 980.347 211.899C961.717 221.247 952.349 243.863 951.15 260.732C949.108 289.687 970.518 310.927 983.931 324.248Z" fill="white"/>
</mask>
<g mask="url(#mask0_6_6)">
<path d="M1184.65 575.92L791.95 255.28L1105.8 -129.929L1498.5 190.71L1184.65 575.92Z" fill="#231F20"/>
</g>
<path d="M916.116 386.169C948.528 438.692 1015.74 470.463 1086.86 471.08C1101.73 471.208 1117.65 467.75 1135.29 459.328C1231.17 413.504 1312.16 269.938 1214.53 202.012C1181.29 178.881 1110.47 164.867 1073.92 190.62C1044.96 211.025 1054.58 274.194 1040.82 281.638C1033.51 285.598 1026.95 287.398 1020.85 287.81C981.085 290.471 966.236 269.706 939.411 276.109C919.055 280.957 904.548 300.834 899.37 316.958C890.477 344.653 906.222 370.175 916.103 386.182" fill="#231F20"/>
<mask id="mask1_6_6" style="mask-type:luminance" maskUnits="userSpaceOnUse" x="896" y="176" width="363" height="296">
<path d="M916.116 386.169C948.528 438.692 1015.74 470.463 1086.86 471.08C1101.73 471.208 1117.65 467.75 1135.29 459.328C1231.17 413.504 1312.16 269.938 1214.53 202.012C1181.29 178.881 1110.47 164.867 1073.92 190.62C1044.96 211.025 1054.58 274.194 1040.82 281.638C1033.51 285.598 1026.95 287.398 1020.85 287.81C981.085 290.471 966.236 269.706 939.411 276.109C919.055 280.957 904.548 300.834 899.37 316.958C890.477 344.653 906.222 370.175 916.103 386.182" fill="white"/>
</mask>
<g mask="url(#mask1_6_6)">
<path d="M1045.57 674.832L742.99 277.537L1157.07 -38.7567L1459.65 358.539L1045.57 674.832Z" fill="#231F20"/>
</g>
<path d="M1305.74 346.8C1300.1 348.047 1301.3 355.517 1293.58 365.829C1278.71 385.719 1256.65 381.438 1253.82 392.919C1251.05 404.157 1268.68 422.466 1288.51 424.574C1301.41 425.937 1311.5 420.062 1315.82 416.989C1326.64 409.326 1333.5 396.558 1333.19 383.444C1332.73 364.376 1317.14 346.633 1307.31 346.645C1306.77 346.645 1306.24 346.697 1305.73 346.813" fill="url(#paint1_linear_6_6)"/>
<mask id="mask2_6_6" style="mask-type:luminance" maskUnits="userSpaceOnUse" x="1253" y="346" width="81" height="79">
<path d="M1305.74 346.8C1300.1 348.047 1301.3 355.517 1293.58 365.829C1278.71 385.719 1256.65 381.438 1253.82 392.919C1251.05 404.157 1268.68 422.466 1288.51 424.574C1301.41 425.937 1311.5 420.062 1315.82 416.989C1326.64 409.326 1333.5 396.558 1333.19 383.444C1332.73 364.376 1317.14 346.633 1307.31 346.645C1306.77 346.645 1306.24 346.697 1305.73 346.813" fill="white"/>
</mask>
<g mask="url(#mask2_6_6)">
<path d="M1265.02 314.875L1362.48 360.043L1319.56 457.682L1222.1 412.514L1265.02 314.875Z" fill="url(#paint2_linear_6_6)"/>
</g>
<path d="M906.314 115.096C896.024 120.817 894.43 145.902 906.432 161.434C914.246 171.54 925.55 174.69 930.794 175.667C943.93 178.123 958.16 174.253 967.738 165.047C982.429 150.929 984.484 125.819 976.302 120.431C971.506 117.269 966.75 123.247 953.772 124.816C942.019 126.243 933.152 122.9 925.972 119.544C919.964 116.741 915.128 113.938 910.754 113.938C909.226 113.938 907.763 114.286 906.314 115.083" fill="url(#paint3_linear_6_6)"/>
<mask id="mask3_6_6" style="mask-type:luminance" maskUnits="userSpaceOnUse" x="898" y="113" width="84" height="64">
<path d="M906.314 115.096C896.024 120.817 894.43 145.902 906.432 161.434C914.246 171.54 925.55 174.69 930.794 175.667C943.93 178.123 958.16 174.253 967.738 165.047C982.429 150.929 984.484 125.819 976.302 120.431C971.506 117.269 966.75 123.247 953.772 124.816C942.019 126.243 933.152 122.9 925.972 119.544C919.964 116.741 915.128 113.938 910.754 113.938C909.226 113.938 907.763 114.286 906.314 115.083" fill="white"/>
</mask>
<g mask="url(#mask3_6_6)">
<path d="M975.064 85.3177L1003.39 171.411L903.85 206.769L875.51 120.663L975.064 85.3177Z" fill="url(#paint4_linear_6_6)"/>
</g>
<path d="M1075.92 166.988C1057.69 170.961 1044.54 161.022 1031.26 151.096C1018.74 141.723 1006.12 132.35 989.043 134.665C944.589 140.669 901.729 220.501 920.965 290.253C931.426 328.182 961.572 377.028 1018.4 366.703C1046.36 361.624 1070.98 347.7 1099.89 345.681C1136.28 343.135 1147.19 360.403 1127.16 391.261C1110.52 416.886 1094.55 437.689 1100.96 464.445C1107.53 491.948 1135.5 505.268 1168.19 505.165C1188.39 505.101 1215.2 499.688 1227.48 480.337C1237.92 463.88 1232.68 444.156 1230.96 428.997C1228.81 410.11 1225.17 388.175 1238.82 368.195C1255.85 343.277 1286.77 338.134 1313.62 333.274C1337.85 328.902 1366.15 324.994 1374.33 299.279C1382.92 272.278 1367.43 249.263 1363.12 243.529C1334.47 205.355 1277.36 226.325 1260.19 194.773C1247.3 171.064 1270.38 144.256 1257.82 134.228C1249.33 127.439 1233.24 135.269 1216.62 143.086C1199.72 151.045 1182.26 159.004 1171.71 151.585C1154.98 139.808 1170.64 99.9238 1159.88 95.6166C1159.31 95.3851 1158.72 95.2823 1158.11 95.2823C1143.75 95.2823 1119.88 157.422 1075.92 166.988Z" fill="#F9ED32"/>
<mask id="mask4_6_6" style="mask-type:luminance" maskUnits="userSpaceOnUse" x="916" y="95" width="461" height="411">
<path d="M1075.92 166.988C1057.69 170.961 1044.54 161.022 1031.26 151.096C1018.74 141.723 1006.12 132.35 989.043 134.665C944.589 140.669 901.729 220.501 920.965 290.253C931.426 328.182 961.572 377.028 1018.4 366.703C1046.36 361.624 1070.98 347.7 1099.89 345.681C1136.28 343.135 1147.19 360.403 1127.16 391.261C1110.52 416.886 1094.55 437.689 1100.96 464.445C1107.53 491.948 1135.5 505.268 1168.19 505.165C1188.39 505.101 1215.2 499.688 1227.48 480.337C1237.92 463.88 1232.68 444.156 1230.96 428.997C1228.81 410.11 1225.17 388.175 1238.82 368.195C1255.85 343.277 1286.77 338.134 1313.62 333.274C1337.85 328.902 1366.15 324.994 1374.33 299.279C1382.92 272.278 1367.43 249.263 1363.12 243.529C1334.47 205.355 1277.36 226.325 1260.19 194.773C1247.3 171.064 1270.38 144.256 1257.82 134.228C1249.33 127.439 1233.24 135.269 1216.62 143.086C1199.72 151.045 1182.26 159.004 1171.71 151.585C1154.98 139.808 1170.64 99.9238 1159.88 95.6166C1159.31 95.3851 1158.72 95.2823 1158.11 95.2823C1143.75 95.2823 1119.88 157.422 1075.92 166.988Z" fill="white"/>
</mask>
<g mask="url(#mask4_6_6)">
<path d="M1026.41 -110.461L717.647 399.028L1258.22 711.008L1566.99 201.518L1026.41 -110.461Z" fill="#F9ED32"/>
</g>
<path d="M1266.15 114.556H971.019V402.563H1266.15V114.556Z" stroke="#231F20" stroke-width="2.77" stroke-miterlimit="10"/>
<path d="M1103.87 323.103C1103.08 322.293 1098.24 320.031 1094.16 318.205C1093.38 315.582 1093.22 309.809 1094.99 297.697C1097.69 279.247 1084.7 280.815 1084.7 280.815C1083.34 277.807 1062.68 274.219 1065.4 297.389C1066.87 310.027 1066.55 316.225 1065.97 319.259C1062.51 320.828 1059.14 322.461 1058.48 323.129C1057.05 324.582 1056.05 335.048 1056.05 335.048H1106.31C1106.31 335.048 1105.29 324.582 1103.88 323.129L1103.87 323.103ZM1087.57 310.812C1088.08 310.4 1088.53 309.976 1088.91 309.526C1088.2 310.516 1087.57 310.812 1087.57 310.812ZM1074.87 313.088C1074.84 311.776 1074.79 310.812 1074.79 310.812C1074.79 310.812 1074.79 310.812 1074.78 310.799C1074.78 310.799 1074.79 310.799 1074.8 310.812C1074.8 310.812 1074.87 311.776 1074.88 313.088H1074.87ZM1071.46 301.117C1071.46 301.117 1071.46 301.207 1071.46 301.246C1071.46 301.156 1071.46 301.117 1071.46 301.117Z" fill="white"/>
<path d="M1183.12 320.262C1181.34 318.436 1163.41 310.812 1163.41 310.812V308.279C1164.13 307.199 1164.65 306.157 1164.88 305.36C1165.75 302.403 1165.24 301.696 1165.24 301.696C1165.24 301.696 1166.91 302.969 1168.14 299.42C1169.36 295.871 1170.71 293.531 1168.05 293.12C1168.05 293.12 1170.5 286.794 1168.05 280.751C1167.02 278.231 1164.51 276.662 1161.95 275.685C1158.31 270.594 1147.52 275.197 1145.71 276.392C1145 276.752 1144.33 277.164 1143.71 277.627H1143.7C1142.63 278.45 1141.75 279.465 1141.25 280.725C1138.8 286.768 1141.25 293.094 1141.25 293.094C1138.6 293.493 1139.93 295.833 1141.15 299.394C1142.38 302.943 1144.05 301.67 1144.05 301.67C1144.05 301.67 1143.54 302.377 1144.41 305.334C1144.65 306.132 1145.16 307.173 1145.88 308.253V310.786C1145.88 310.786 1127.74 318.411 1125.95 320.236C1124.17 322.062 1122.89 335.241 1122.89 335.241H1186.17C1186.17 335.241 1184.9 322.062 1183.12 320.236V320.262Z" fill="white"/>
<path d="M1036.4 320.262C1034.62 318.436 1020.18 315.363 1020.14 315.35C1020.41 315.145 1020.62 315.029 1020.77 315.042L1016.59 310.927C1016.65 310.85 1016.69 310.812 1016.69 310.812V308.279C1017.41 307.199 1017.92 306.157 1018.16 305.36C1019.03 302.403 1018.52 301.696 1018.52 301.696C1018.52 301.696 1020.19 302.969 1021.42 299.42C1022.64 295.871 1023.98 293.531 1021.32 293.12C1021.32 293.12 1023.77 286.794 1021.32 280.751C1020.3 278.231 1017.79 276.662 1015.22 275.685C1015.53 271.674 1014.62 268.215 1014.62 268.215C1014.31 270.761 1010.91 272.227 1010.91 272.227C1011.11 270.568 1007.61 265.194 1007.61 265.194C1007.71 268.125 1004.19 273.204 1004.19 273.204L1003.5 271.841C1003.19 273.345 1000.78 275.197 998.977 276.405C998.266 276.765 997.594 277.177 996.975 277.64H996.961C995.894 278.462 995.025 279.478 994.511 280.738C992.06 286.781 994.511 293.107 994.511 293.107C991.862 293.506 993.193 295.846 994.419 299.407C995.644 302.956 997.317 301.683 997.317 301.683C997.317 301.683 996.803 302.39 997.673 305.347C997.91 306.144 998.424 307.186 999.149 308.266V310.799L994.853 315.029C994.985 315.029 995.209 315.132 995.486 315.338C995.446 315.338 981.006 318.423 979.227 320.249C977.448 322.075 976.17 335.254 976.17 335.254H1039.45C1039.45 335.254 1038.17 322.075 1036.4 320.249V320.262Z" fill="white"/>
<path d="M1250.6 325.058C1249.18 323.849 1234.95 318.783 1234.95 318.783L1234.75 318.938C1234.62 318.526 1234.53 318.038 1234.45 317.523C1234.83 318.603 1235.35 318.025 1235.35 318.025C1234.74 317.588 1235.35 316.79 1235.35 316.79L1236.66 317.279C1235.7 316.34 1236.77 314.708 1236.77 314.708C1237.02 315.299 1237.93 315.106 1237.93 315.106C1237.52 314.219 1238.18 313.216 1238.18 313.216C1238.28 313.499 1239.34 313.216 1239.34 313.216C1237.92 310.979 1243.69 310.619 1244.04 297.967C1244.4 285.328 1234.78 282.024 1234.78 282.024C1228.92 275.261 1221.93 280.044 1218.59 282.024C1215.24 284.004 1216.31 285.971 1212.97 291.448C1209.64 296.926 1209.98 303.007 1209.98 303.007C1210.64 302.904 1210.94 302.262 1210.94 302.262C1210.59 305.862 1213.07 309.32 1213.07 309.32C1213.07 308.832 1213.42 308.279 1213.42 308.279C1218.64 315.929 1216.41 318.938 1216.41 318.938C1217.82 318.488 1218.64 317.562 1218.64 317.562L1219.6 318.398L1220.15 317.652L1220.46 318.102V316.418L1221.29 317.909C1221.24 318.231 1221.16 318.526 1221.08 318.809L1221.02 318.758C1221.02 318.758 1206.62 323.823 1205.2 325.032C1203.78 326.241 1202.78 334.997 1202.78 334.997H1253.03C1253.03 334.997 1252.01 326.241 1250.6 325.032V325.058ZM1237.31 297.479C1237.44 297.761 1237.52 298.404 1237.55 299.189C1237.51 298.739 1237.44 298.34 1237.38 298.031C1237.34 297.877 1237.32 297.684 1237.31 297.466V297.479ZM1221.51 310.812C1221.51 310.812 1221.5 310.799 1221.49 310.786C1221.49 310.786 1221.5 310.799 1221.51 310.812ZM1237.07 306.877C1237.23 306.196 1237.36 305.386 1237.44 304.524V304.537C1237.47 305.373 1237.32 306.157 1237.07 306.864V306.877ZM1218.24 303.174C1218.27 303.522 1218.3 303.869 1218.32 304.216C1218.24 303.573 1218.24 303.174 1218.24 303.174Z" fill="white"/>
<path d="M1003.79 276.817L1003.77 276.045H1003.8L1003.79 276.817Z" fill="white"/>
<path d="M1003.79 274.104L1003.84 272.561H1003.98L1003.88 274.117L1003.79 274.104Z" fill="white"/>
<path d="M1003.96 270.619L1004.09 269.076L1004.35 269.102L1004.17 270.645L1003.96 270.619Z" fill="white"/>
<path d="M1004.31 267.148L1004.54 265.605L1004.88 265.656L1004.62 267.186L1004.31 267.148Z" fill="white"/>
<path d="M1004.85 263.689L1005.16 262.159L1005.58 262.249L1005.25 263.766L1004.85 263.689Z" fill="white"/>
<path d="M1005.58 260.256L1005.95 258.752L1006.46 258.881L1006.05 260.372L1005.58 260.256Z" fill="white"/>
<path d="M1006.47 256.875L1006.92 255.383L1007.51 255.563L1007.03 257.042L1006.47 256.875Z" fill="white"/>
<path d="M1007.55 253.532L1008.08 252.066L1008.74 252.298L1008.17 253.75L1007.55 253.532Z" fill="white"/>
<path d="M1008.79 250.24L1009.4 248.813L1010.12 249.109L1009.49 250.523L1008.79 250.24Z" fill="white"/>
<path d="M1010.22 247.026L1010.9 245.624L1011.67 245.984L1010.95 247.373L1010.22 247.026Z" fill="white"/>
<path d="M1011.81 243.876L1012.56 242.513L1013.35 242.937L1012.57 244.287L1011.81 243.876Z" fill="white"/>
<path d="M1013.56 240.816L1014.39 239.491L1015.2 239.98L1014.35 241.291L1013.56 240.816Z" fill="white"/>
<path d="M1015.47 237.846L1016.36 236.56L1017.2 237.113L1016.29 238.386L1015.47 237.846Z" fill="white"/>
<path d="M1017.53 234.966L1018.48 233.731L1019.33 234.361L1018.36 235.583L1017.53 234.966Z" fill="white"/>
<path d="M1019.73 232.188L1020.74 230.993L1021.6 231.7L1020.56 232.87L1019.73 232.188Z" fill="white"/>
<path d="M1022.07 229.514L1023.14 228.383L1024 229.154L1022.9 230.286L1022.07 229.514Z" fill="white"/>
<path d="M1024.54 226.968L1025.67 225.875L1026.53 226.737L1025.38 227.804L1024.54 226.968Z" fill="white"/>
<path d="M1027.13 224.525L1028.32 223.497L1029.16 224.435L1027.96 225.451L1027.13 224.525Z" fill="white"/>
<path d="M1029.85 222.224L1031.07 221.247L1031.92 222.262L1030.66 223.214L1029.85 222.224Z" fill="white"/>
<path d="M1032.68 220.038L1033.96 219.125L1034.76 220.205L1033.47 221.105L1032.68 220.038Z" fill="white"/>
<path d="M1035.62 218.007L1036.95 217.158L1037.7 218.302L1036.37 219.138L1035.62 218.007Z" fill="white"/>
<path d="M1038.66 216.117L1040.02 215.332L1040.74 216.528L1039.36 217.3L1038.66 216.117Z" fill="white"/>
<path d="M1041.78 214.368L1043.19 213.648L1043.85 214.908L1042.44 215.615L1041.78 214.368Z" fill="white"/>
<path d="M1045 212.774L1046.44 212.118L1047.05 213.429L1045.61 214.072L1045 212.774Z" fill="white"/>
<path d="M1048.28 211.334L1049.76 210.742L1050.32 212.105L1048.85 212.684L1048.28 211.334Z" fill="white"/>
<path d="M1051.64 210.048L1053.14 209.534L1053.64 210.935L1052.14 211.436L1051.64 210.048Z" fill="white"/>
<path d="M1056.57 208.531L1055.05 208.97L1055.48 210.399L1057 209.96L1056.57 208.531Z" fill="white"/>
<path d="M1058.53 207.965L1060.09 207.605L1060.44 209.058L1058.9 209.431L1058.53 207.965Z" fill="white"/>
<path d="M1062.05 207.181L1063.62 206.885L1063.91 208.364L1062.35 208.659L1062.05 207.181Z" fill="white"/>
<path d="M1067.17 206.353L1065.59 206.576L1065.82 208.077L1067.4 207.854L1067.17 206.353Z" fill="white"/>
<path d="M1070.76 205.967L1069.17 206.117L1069.32 207.64L1070.91 207.49L1070.76 205.967Z" fill="white"/>
<path d="M1074.4 205.678L1072.81 205.755L1072.88 207.283L1074.48 207.207L1074.4 205.678Z" fill="white"/>
<path d="M1076.38 205.676C1076.38 205.676 1076.78 205.676 1077.17 205.676C1077.57 205.676 1077.98 205.676 1077.98 205.676V207.219H1076.4V205.676H1076.38Z" fill="white"/>
<path d="M1079.99 205.715L1081.59 205.792L1081.51 207.322L1079.93 207.258L1079.99 205.715Z" fill="white"/>
<path d="M1083.6 205.933L1085.18 206.088L1085.04 207.605L1083.46 207.464L1083.6 205.933Z" fill="white"/>
<path d="M1087.15 206.288L1086.93 207.79L1088.51 208.011L1088.73 206.509L1087.15 206.288Z" fill="white"/>
<path d="M1090.76 206.859L1092.31 207.155L1092.02 208.634L1090.47 208.351L1090.76 206.859Z" fill="white"/>
<path d="M1094.29 207.579L1095.84 207.939L1095.47 209.405L1093.93 209.045L1094.29 207.579Z" fill="white"/>
<path d="M1097.79 208.454L1099.31 208.891L1098.89 210.331L1097.36 209.894L1097.79 208.454Z" fill="white"/>
<path d="M1101.26 209.522L1100.76 210.918L1102.26 211.43L1102.76 210.034L1101.26 209.522Z" fill="white"/>
<path d="M1104.63 210.704L1106.09 211.295L1105.54 212.645L1104.07 212.067L1104.63 210.704Z" fill="white"/>
<path d="M1107.95 212.079L1109.39 212.735L1108.78 214.034L1107.33 213.391L1107.95 212.079Z" fill="white"/>
<path d="M1111.21 213.609L1112.62 214.329L1111.94 215.577L1110.53 214.869L1111.21 213.609Z" fill="white"/>
<path d="M1114.38 215.281L1115.75 216.078L1115.04 217.261L1113.66 216.489L1114.38 215.281Z" fill="white"/>
<path d="M1117.46 217.119L1118.78 217.968L1118.03 219.1L1116.7 218.251L1117.46 217.119Z" fill="white"/>
<path d="M1120.44 219.087L1121.73 220L1120.94 221.067L1119.65 220.167L1120.44 219.087Z" fill="white"/>
<path d="M1123.33 221.195L1124.57 222.172L1123.75 223.175L1122.5 222.211L1123.33 221.195Z" fill="white"/>
<path d="M1126.11 223.445L1127.28 224.474L1126.45 225.4L1125.25 224.384L1126.11 223.445Z" fill="white"/>
<path d="M1128.76 225.824L1129.89 226.904L1129.05 227.753L1127.9 226.685L1128.76 225.824Z" fill="white"/>
<path d="M1131.29 228.318L1132.35 229.463L1131.52 230.234L1130.43 229.103L1131.29 228.318Z" fill="white"/>
<path d="M1133.68 230.941L1134.7 232.137L1133.87 232.818L1132.83 231.648L1133.68 230.941Z" fill="white"/>
<path d="M1135.95 233.667L1136.91 234.901L1136.08 235.531L1135.11 234.297L1135.95 233.667Z" fill="white"/>
<path d="M1138.07 236.509L1138.97 237.781L1138.15 238.334L1137.24 237.061L1138.07 236.509Z" fill="white"/>
<path d="M1140.05 239.427L1140.88 240.752L1140.09 241.24L1139.23 239.929L1140.05 239.427Z" fill="white"/>
<path d="M1141.88 242.449L1142.63 243.812L1141.87 244.236L1141.09 242.886L1141.88 242.449Z" fill="white"/>
<path d="M1143.54 245.56L1144.22 246.962L1143.49 247.309L1142.77 245.92L1143.54 245.56Z" fill="white"/>
<path d="M1145.05 248.736L1145.66 250.176L1144.96 250.459L1144.32 249.045L1145.05 248.736Z" fill="white"/>
<path d="M1146.37 252.002L1146.9 253.455L1146.28 253.686L1145.71 252.233L1146.37 252.002Z" fill="white"/>
<path d="M1147.53 255.319L1147.98 256.798L1147.43 256.965L1146.94 255.499L1147.53 255.319Z" fill="white"/>
<path d="M1148.51 258.675L1148.88 260.192L1148.41 260.308L1147.99 258.816L1148.51 258.675Z" fill="white"/>
<path d="M1149.31 262.095L1149.6 263.612L1149.22 263.689L1148.88 262.172L1149.31 262.095Z" fill="white"/>
<path d="M1149.93 265.528L1150.15 267.071L1149.84 267.109L1149.59 265.579L1149.93 265.528Z" fill="white"/>
<path d="M1150.38 268.999L1150.51 270.542L1150.3 270.568L1150.11 269.025L1150.38 268.999Z" fill="white"/>
<path d="M1150.63 272.484L1150.68 274.027L1150.59 274.039L1150.48 272.484H1150.63Z" fill="white"/>
<path d="M1150.71 276.045L1150.69 276.817L1150.68 276.045H1150.71Z" fill="white"/>
<path d="M1075.96 276.817V276.045H1075.99L1075.96 276.817Z" fill="white"/>
<path d="M1075.97 274.117L1076.03 272.587H1076.17L1076.07 274.129L1075.97 274.117Z" fill="white"/>
<path d="M1076.15 270.658L1076.28 269.128L1076.53 269.154L1076.34 270.684L1076.15 270.658Z" fill="white"/>
<path d="M1076.49 267.212L1076.7 265.695L1077.04 265.746L1076.79 267.264L1076.49 267.212Z" fill="white"/>
<path d="M1077.03 263.779L1077.32 262.275L1077.74 262.352L1077.41 263.856L1077.03 263.779Z" fill="white"/>
<path d="M1077.73 260.385L1078.11 258.893L1078.61 259.009L1078.2 260.501L1077.73 260.385Z" fill="white"/>
<path d="M1078.62 257.016L1079.06 255.55L1079.65 255.718L1079.16 257.183L1078.62 257.016Z" fill="white"/>
<path d="M1079.68 253.699L1080.19 252.246L1080.85 252.49L1080.3 253.918L1079.68 253.699Z" fill="white"/>
<path d="M1080.9 250.433L1081.5 249.019L1082.22 249.315L1081.59 250.716L1080.9 250.433Z" fill="white"/>
<path d="M1082.3 247.245L1082.97 245.856L1083.74 246.203L1083.04 247.592L1082.3 247.245Z" fill="white"/>
<path d="M1083.87 244.12L1084.62 242.757L1085.4 243.182L1084.63 244.519L1083.87 244.12Z" fill="white"/>
<path d="M1085.59 241.073L1086.41 239.749L1087.21 240.237L1086.38 241.536L1085.59 241.073Z" fill="white"/>
<path d="M1087.48 238.116L1088.36 236.83L1089.19 237.383L1088.28 238.643L1087.48 238.116Z" fill="white"/>
<path d="M1089.51 235.249L1090.44 234.014L1091.28 234.631L1090.34 235.853L1089.51 235.249Z" fill="white"/>
<path d="M1091.68 232.471L1092.68 231.288L1093.52 231.983L1092.51 233.153L1091.68 232.471Z" fill="white"/>
<path d="M1093.99 229.81L1095.04 228.678L1095.9 229.45L1094.82 230.568L1093.99 229.81Z" fill="white"/>
<path d="M1096.42 227.264L1097.53 226.184L1098.39 227.02L1097.25 228.1L1096.42 227.264Z" fill="white"/>
<path d="M1098.98 224.834L1100.15 223.793L1101 224.718L1099.81 225.734L1098.98 224.834Z" fill="white"/>
<path d="M1101.67 222.52L1102.88 221.542L1103.71 222.545L1102.48 223.51L1101.67 222.52Z" fill="white"/>
<path d="M1104.46 220.347L1105.73 219.434L1106.53 220.501L1105.25 221.401L1104.46 220.347Z" fill="white"/>
<path d="M1107.36 218.302L1108.66 217.454L1109.44 218.572L1108.12 219.421L1107.36 218.302Z" fill="white"/>
<path d="M1110.36 216.399L1111.71 215.615L1112.43 216.798L1111.07 217.582L1110.36 216.399Z" fill="white"/>
<path d="M1113.46 214.651L1114.84 213.918L1115.51 215.165L1114.12 215.872L1113.46 214.651Z" fill="white"/>
<path d="M1116.63 213.031L1118.06 212.375L1118.68 213.674L1117.25 214.317L1116.63 213.031Z" fill="white"/>
<path d="M1119.88 211.578L1121.34 210.987L1121.9 212.337L1120.46 212.915L1119.88 211.578Z" fill="white"/>
<path d="M1123.21 210.266L1124.68 209.752L1125.2 211.141L1123.71 211.655L1123.21 210.266Z" fill="white"/>
<path d="M1128.11 208.646L1126.6 209.099L1127.05 210.525L1128.56 210.072L1128.11 208.646Z" fill="white"/>
<path d="M1130.02 208.145L1131.55 207.772L1131.93 209.225L1130.4 209.598L1130.02 208.145Z" fill="white"/>
<path d="M1135.04 207.074L1133.49 207.384L1133.8 208.857L1135.35 208.548L1135.04 207.074Z" fill="white"/>
<path d="M1138.58 206.43L1137.02 206.668L1137.26 208.167L1138.82 207.93L1138.58 206.43Z" fill="white"/>
<path d="M1140.57 206.178L1142.13 206.024L1142.3 207.541L1140.73 207.695L1140.57 206.178Z" fill="white"/>
<path d="M1144.13 205.856L1145.71 205.766L1145.81 207.296L1144.22 207.386L1144.13 205.856Z" fill="white"/>
<path d="M1149.28 205.679L1147.7 205.699L1147.72 207.242L1149.3 207.221L1149.28 205.679Z" fill="white"/>
<path d="M1151.29 205.689L1152.87 205.753L1152.81 207.284L1151.23 207.232L1151.29 205.689Z" fill="white"/>
<path d="M1154.92 205.892L1154.79 207.417L1156.37 207.544L1156.5 206.019L1154.92 205.892Z" fill="white"/>
<path d="M1158.4 206.182L1158.2 207.687L1159.77 207.884L1159.97 206.379L1158.4 206.182Z" fill="white"/>
<path d="M1161.94 206.655L1161.67 208.149L1163.23 208.416L1163.5 206.922L1161.94 206.655Z" fill="white"/>
<path d="M1165.54 207.377L1165.2 208.845L1166.75 209.182L1167.08 207.714L1165.54 207.377Z" fill="white"/>
<path d="M1168.98 208.145L1170.5 208.544L1170.1 209.984L1168.57 209.585L1168.98 208.145Z" fill="white"/>
<path d="M1172.45 209.118L1171.98 210.537L1173.49 211.01L1173.96 209.59L1172.45 209.118Z" fill="white"/>
<path d="M1175.82 210.215L1177.29 210.755L1176.77 212.131L1175.29 211.604L1175.82 210.215Z" fill="white"/>
<path d="M1179.15 211.475L1180.6 212.079L1180.02 213.417L1178.57 212.825L1179.15 211.475Z" fill="white"/>
<path d="M1182.42 212.889L1183.84 213.558L1183.21 214.844L1181.79 214.188L1182.42 212.889Z" fill="white"/>
<path d="M1185.62 214.445L1187 215.178L1186.33 216.399L1184.95 215.679L1185.62 214.445Z" fill="white"/>
<path d="M1188.74 216.142L1190.1 216.927L1189.39 218.11L1188.03 217.325L1188.74 216.142Z" fill="white"/>
<path d="M1191.8 217.968L1193.11 218.817L1192.35 219.935L1191.04 219.1L1191.8 217.968Z" fill="white"/>
<path d="M1194.75 219.935L1196.03 220.835L1195.24 221.902L1193.96 221.002L1194.75 219.935Z" fill="white"/>
<path d="M1197.61 222.031L1198.84 222.995L1198.03 223.985L1196.79 223.034L1197.61 222.031Z" fill="white"/>
<path d="M1200.36 224.243L1201.55 225.271L1200.73 226.184L1199.53 225.181L1200.36 224.243Z" fill="white"/>
<path d="M1203.01 226.595L1204.15 227.663L1203.33 228.498L1202.17 227.444L1203.01 226.595Z" fill="white"/>
<path d="M1205.54 229.051L1206.62 230.17L1205.81 230.928L1204.71 229.823L1205.54 229.051Z" fill="white"/>
<path d="M1207.95 231.623L1208.98 232.793L1208.16 233.474L1207.12 232.33L1207.95 231.623Z" fill="white"/>
<path d="M1210.23 234.297L1211.21 235.506L1210.4 236.136L1209.42 234.927L1210.23 234.297Z" fill="white"/>
<path d="M1212.39 237.074L1213.3 238.334L1212.5 238.887L1211.58 237.64L1212.39 237.074Z" fill="white"/>
<path d="M1214.4 239.954L1215.24 241.253L1214.46 241.729L1213.61 240.443L1214.4 239.954Z" fill="white"/>
<path d="M1216.27 242.912L1217.05 244.249L1216.29 244.673L1215.49 243.349L1216.27 242.912Z" fill="white"/>
<path d="M1217.98 245.972L1218.68 247.347L1217.95 247.707L1217.23 246.345L1217.98 245.972Z" fill="white"/>
<path d="M1219.52 249.096L1220.15 250.51L1219.48 250.806L1218.81 249.417L1219.52 249.096Z" fill="white"/>
<path d="M1220.89 252.31L1221.45 253.75L1220.84 253.982L1220.25 252.555L1220.89 252.31Z" fill="white"/>
<path d="M1222.09 255.589L1222.57 257.055L1222.03 257.222L1221.52 255.769L1222.09 255.589Z" fill="white"/>
<path d="M1223.12 258.906L1223.51 260.398L1223.05 260.526L1222.62 259.048L1223.12 258.906Z" fill="white"/>
<path d="M1223.96 262.288L1224.27 263.792L1223.88 263.869L1223.54 262.365L1223.96 262.288Z" fill="white"/>
<path d="M1224.61 265.695L1224.84 267.212L1224.54 267.264L1224.28 265.746L1224.61 265.695Z" fill="white"/>
<path d="M1225.08 269.128L1225.23 270.658L1225.02 270.684L1224.83 269.154L1225.08 269.128Z" fill="white"/>
<path d="M1225.35 272.587L1225.41 274.117H1225.32L1225.2 272.587H1225.35Z" fill="white"/>
<path d="M1225.42 276.045V276.817L1225.4 276.045H1225.42Z" fill="white"/>
<path d="M1003.79 276.817L1003.76 276.045H1003.81L1003.79 276.817Z" fill="white"/>
<path d="M1003.8 274.117L1003.9 272.587L1004.18 272.612L1003.98 274.129L1003.8 274.117Z" fill="white"/>
<path d="M1004.16 270.658L1004.43 269.141L1004.87 269.231L1004.52 270.735L1004.16 270.658Z" fill="white"/>
<path d="M1004.87 267.238L1005.3 265.759L1005.91 265.939L1005.39 267.405L1004.87 267.238Z" fill="white"/>
<path d="M1005.95 263.908L1006.53 262.481L1007.26 262.789L1006.61 264.191L1005.95 263.908Z" fill="white"/>
<path d="M1007.37 260.693L1008.09 259.331L1008.91 259.768L1008.13 261.105L1007.37 260.693Z" fill="white"/>
<path d="M1009.12 257.633L1009.98 256.348L1010.85 256.926L1009.94 258.186L1009.12 257.633Z" fill="white"/>
<path d="M1011.18 254.753L1012.18 253.558L1013.06 254.29L1012.03 255.448L1011.18 254.753Z" fill="white"/>
<path d="M1013.54 252.092L1014.64 250.999L1015.51 251.86L1014.38 252.928L1013.54 252.092Z" fill="white"/>
<path d="M1016.13 249.662L1017.34 248.672L1018.19 249.687L1016.95 250.639L1016.13 249.662Z" fill="white"/>
<path d="M1018.98 247.489L1020.3 246.627L1021.06 247.759L1019.74 248.607L1018.98 247.489Z" fill="white"/>
<path d="M1022.03 245.599L1023.42 244.866L1024.1 246.113L1022.71 246.833L1022.03 245.599Z" fill="white"/>
<path d="M1025.26 244.004L1026.71 243.413L1027.29 244.763L1025.83 245.342L1025.26 244.004Z" fill="white"/>
<path d="M1028.64 242.732L1030.14 242.282L1030.59 243.709L1029.07 244.146L1028.64 242.732Z" fill="white"/>
<path d="M1032.11 241.78L1033.67 241.472L1033.97 242.95L1032.43 243.259L1032.11 241.78Z" fill="white"/>
<path d="M1035.68 241.163L1037.25 240.996L1037.41 242.526L1035.84 242.68L1035.68 241.163Z" fill="white"/>
<path d="M1039.28 240.88C1039.28 240.88 1039.68 240.88 1040.07 240.867C1040.27 240.867 1040.48 240.867 1040.62 240.867C1040.77 240.867 1040.88 240.867 1040.88 240.867V242.41C1040.88 242.41 1040.77 242.41 1040.62 242.41C1040.56 242.41 1040.48 242.41 1040.39 242.41C1040.3 242.41 1040.2 242.41 1040.1 242.41C1039.7 242.41 1039.31 242.41 1039.31 242.41L1039.28 240.867V240.88Z" fill="white"/>
<path d="M1042.9 240.931L1044.47 241.073L1044.35 242.59L1042.77 242.462L1042.9 240.931Z" fill="white"/>
<path d="M1046.5 241.33L1048.06 241.613L1047.78 243.104L1046.22 242.822L1046.5 241.33Z" fill="white"/>
<path d="M1050.05 242.076L1051.56 242.513L1051.14 243.94L1049.62 243.516L1050.05 242.076Z" fill="white"/>
<path d="M1053.5 243.169L1054.96 243.747L1054.39 245.097L1052.93 244.532L1053.5 243.169Z" fill="white"/>
<path d="M1056.8 244.609L1058.19 245.329L1057.52 246.576L1056.12 245.869L1056.8 244.609Z" fill="white"/>
<path d="M1059.94 246.37L1061.24 247.232L1060.48 248.35L1059.16 247.502L1059.94 246.37Z" fill="white"/>
<path d="M1062.87 248.427L1064.08 249.417L1063.23 250.407L1062.01 249.443L1062.87 248.427Z" fill="white"/>
<path d="M1065.55 250.78L1066.65 251.899L1065.78 252.735L1064.66 251.655L1065.55 250.78Z" fill="white"/>
<path d="M1067.98 253.39L1068.95 254.599L1068.07 255.293L1067.07 254.11L1067.98 253.39Z" fill="white"/>
<path d="M1070.11 256.219L1070.94 257.53L1070.1 258.071L1069.22 256.798L1070.11 256.219Z" fill="white"/>
<path d="M1071.93 259.253L1072.63 260.629L1071.84 261.028L1071.09 259.665L1071.93 259.253Z" fill="white"/>
<path d="M1073.43 262.429L1073.97 263.869L1073.29 264.139L1072.67 262.725L1073.43 262.429Z" fill="white"/>
<path d="M1074.58 265.734L1074.97 267.225L1074.43 267.379L1073.96 265.914L1074.58 265.734Z" fill="white"/>
<path d="M1075.4 269.128L1075.65 270.645L1075.26 270.722L1074.93 269.218L1075.4 269.128Z" fill="white"/>
<path d="M1075.87 272.574L1075.96 274.117L1075.78 274.129L1075.58 272.599L1075.87 272.574Z" fill="white"/>
<path d="M1075.99 276.045L1075.96 276.817L1075.94 276.045H1075.99Z" fill="white"/>
<path d="M1075.96 276.817L1075.95 276.045H1076L1075.96 276.817Z" fill="white"/>
<path d="M1075.99 274.091L1076.09 272.522L1076.37 272.561L1076.17 274.104L1075.99 274.091Z" fill="white"/>
<path d="M1076.36 270.581L1076.63 269.038L1077.08 269.128L1076.73 270.645L1076.36 270.581Z" fill="white"/>
<path d="M1077.09 267.109L1077.53 265.605L1078.15 265.798L1077.62 267.276L1077.09 267.109Z" fill="white"/>
<path d="M1078.19 263.728L1078.79 262.288L1079.53 262.596L1078.87 264.011L1078.19 263.728Z" fill="white"/>
<path d="M1079.66 260.475L1080.41 259.099L1081.23 259.549L1080.43 260.899L1079.66 260.475Z" fill="white"/>
<path d="M1081.47 257.389L1082.35 256.09L1083.23 256.682L1082.3 257.942L1081.47 257.389Z" fill="white"/>
<path d="M1083.59 254.483L1084.6 253.275L1085.5 254.02L1084.45 255.19L1083.59 254.483Z" fill="white"/>
<path d="M1086 251.796L1087.15 250.703L1088.02 251.59L1086.84 252.658L1086 251.796Z" fill="white"/>
<path d="M1088.68 249.366L1089.93 248.376L1090.76 249.405L1089.49 250.369L1088.68 249.366Z" fill="white"/>
<path d="M1091.6 247.193L1092.94 246.344L1093.7 247.502L1092.34 248.325L1091.6 247.193Z" fill="white"/>
<path d="M1094.72 245.329L1096.15 244.609L1096.81 245.869L1095.38 246.576L1094.72 245.329Z" fill="white"/>
<path d="M1098.03 243.76L1099.52 243.182L1100.07 244.544L1098.57 245.11L1098.03 243.76Z" fill="white"/>
<path d="M1101.48 242.526L1103.01 242.089L1103.43 243.529L1101.89 243.953L1101.48 242.526Z" fill="white"/>
<path d="M1105.04 241.626L1106.61 241.343L1106.88 242.834L1105.32 243.104L1105.04 241.626Z" fill="white"/>
<path d="M1108.66 241.073L1110.26 240.944L1110.39 242.462L1108.8 242.59L1108.66 241.073Z" fill="white"/>
<path d="M1112.31 240.867C1112.31 240.867 1112.42 240.867 1112.56 240.867C1112.64 240.867 1112.73 240.867 1112.84 240.867C1112.93 240.867 1113.04 240.867 1113.13 240.867C1113.53 240.867 1113.93 240.88 1113.93 240.88L1113.91 242.423C1113.91 242.423 1113.51 242.423 1113.1 242.423C1112.91 242.423 1112.72 242.423 1112.56 242.423H1112.31V240.88V240.867Z" fill="white"/>
<path d="M1116 240.996L1117.6 241.176L1117.43 242.68L1115.84 242.526L1116 240.996Z" fill="white"/>
<path d="M1119.64 241.484L1121.21 241.793L1120.9 243.272L1119.34 242.963L1119.64 241.484Z" fill="white"/>
<path d="M1123.22 242.294L1124.75 242.744L1124.32 244.172L1122.77 243.722L1123.22 242.294Z" fill="white"/>
<path d="M1126.7 243.413L1128.18 244.017L1127.62 245.354L1126.13 244.789L1126.7 243.413Z" fill="white"/>
<path d="M1130.05 244.866L1131.47 245.599L1130.81 246.833L1129.39 246.126L1130.05 244.866Z" fill="white"/>
<path d="M1133.25 246.602L1134.59 247.45L1133.87 248.582L1132.51 247.759L1133.25 246.602Z" fill="white"/>
<path d="M1136.28 248.62L1137.53 249.597L1136.74 250.6L1135.46 249.662L1136.28 248.62Z" fill="white"/>
<path d="M1139.09 250.909L1140.25 251.989L1139.41 252.863L1138.23 251.809L1139.09 250.909Z" fill="white"/>
<path d="M1141.65 253.455L1142.7 254.625L1141.87 255.358L1140.79 254.2L1141.65 253.455Z" fill="white"/>
<path d="M1143.96 256.206L1144.88 257.492L1144.08 258.07L1143.1 256.823L1143.96 256.206Z" fill="white"/>
<path d="M1145.98 259.176L1146.75 260.539L1146 260.976L1145.17 259.639L1145.98 259.176Z" fill="white"/>
<path d="M1147.66 262.326L1148.3 263.766L1147.64 264.062L1146.94 262.648L1147.66 262.326Z" fill="white"/>
<path d="M1148.99 265.631L1149.47 267.122L1148.94 267.289L1148.4 265.824L1148.99 265.631Z" fill="white"/>
<path d="M1149.96 269.038L1150.27 270.568L1149.9 270.645L1149.52 269.141L1149.96 269.038Z" fill="white"/>
<path d="M1150.55 272.522L1150.67 274.078L1150.48 274.104L1150.27 272.548L1150.55 272.522Z" fill="white"/>
<path d="M1150.71 276.045L1150.69 276.817L1150.65 276.045H1150.71Z" fill="white"/>
<path d="M1150.69 276.817L1150.68 276.045H1150.73L1150.69 276.817Z" fill="white"/>
<path d="M1150.71 274.091L1150.82 272.522L1151.1 272.561L1150.89 274.104L1150.71 274.091Z" fill="white"/>
<path d="M1151.08 270.581L1151.37 269.038L1151.81 269.128L1151.44 270.645L1151.08 270.581Z" fill="white"/>
<path d="M1151.81 267.109L1152.26 265.605L1152.87 265.798L1152.35 267.276L1151.81 267.109Z" fill="white"/>
<path d="M1152.92 263.728L1153.51 262.288L1154.26 262.596L1153.59 264.011L1152.92 263.728Z" fill="white"/>
<path d="M1154.38 260.475L1155.13 259.099L1155.96 259.549L1155.16 260.899L1154.38 260.475Z" fill="white"/>
<path d="M1156.19 257.389L1157.08 256.09L1157.95 256.682L1157.02 257.942L1156.19 257.389Z" fill="white"/>
<path d="M1158.31 254.483L1159.34 253.275L1160.22 254.02L1159.17 255.19L1158.31 254.483Z" fill="white"/>
<path d="M1160.73 251.796L1161.87 250.703L1162.74 251.59L1161.58 252.658L1160.73 251.796Z" fill="white"/>
<path d="M1163.41 249.366L1164.65 248.376L1165.49 249.405L1164.21 250.369L1163.41 249.366Z" fill="white"/>
<path d="M1166.33 247.193L1167.66 246.344L1168.43 247.502L1167.07 248.325L1166.33 247.193Z" fill="white"/>
<path d="M1169.46 245.329L1170.88 244.609L1171.54 245.869L1170.1 246.576L1169.46 245.329Z" fill="white"/>
<path d="M1172.75 243.76L1174.24 243.182L1174.79 244.557L1173.3 245.11L1172.75 243.76Z" fill="white"/>
<path d="M1176.2 242.526L1177.74 242.089L1178.16 243.529L1176.62 243.953L1176.2 242.526Z" fill="white"/>
<path d="M1179.76 241.626L1181.34 241.343L1181.62 242.834L1180.04 243.104L1179.76 241.626Z" fill="white"/>
<path d="M1183.39 241.073L1184.99 240.944L1185.12 242.462L1183.53 242.59L1183.39 241.073Z" fill="white"/>
<path d="M1187.04 240.867C1187.04 240.867 1187.15 240.867 1187.29 240.867C1187.37 240.867 1187.47 240.867 1187.57 240.867C1187.66 240.867 1187.77 240.867 1187.86 240.867C1188.26 240.867 1188.67 240.88 1188.67 240.88L1188.64 242.423C1188.64 242.423 1188.24 242.423 1187.84 242.423C1187.64 242.423 1187.45 242.423 1187.31 242.423H1187.06V240.88L1187.04 240.867Z" fill="white"/>
<path d="M1190.73 240.996L1192.31 241.176L1192.16 242.68L1190.56 242.526L1190.73 240.996Z" fill="white"/>
<path d="M1194.37 241.484L1195.94 241.793L1195.63 243.272L1194.07 242.963L1194.37 241.484Z" fill="white"/>
<path d="M1197.94 242.294L1199.48 242.744L1199.03 244.172L1197.51 243.722L1197.94 242.294Z" fill="white"/>
<path d="M1201.43 243.413L1202.91 244.017L1202.35 245.354L1200.87 244.789L1201.43 243.413Z" fill="white"/>
<path d="M1204.78 244.866L1206.2 245.586L1205.54 246.833L1204.12 246.126L1204.78 244.866Z" fill="white"/>
<path d="M1207.98 246.602L1209.32 247.45L1208.59 248.582L1207.23 247.759L1207.98 246.602Z" fill="white"/>
<path d="M1211 248.62L1212.26 249.597L1211.46 250.6L1210.18 249.662L1211 248.62Z" fill="white"/>
<path d="M1213.8 250.909L1214.96 251.989L1214.13 252.863L1212.96 251.809L1213.8 250.909Z" fill="white"/>
<path d="M1216.39 253.455L1217.43 254.625L1216.6 255.358L1215.52 254.2L1216.39 253.455Z" fill="white"/>
<path d="M1218.69 256.206L1219.61 257.492L1218.8 258.07L1217.84 256.823L1218.69 256.206Z" fill="white"/>
<path d="M1220.71 259.176L1221.49 260.539L1220.73 260.976L1219.89 259.639L1220.71 259.176Z" fill="white"/>
<path d="M1222.39 262.326L1223.03 263.766L1222.35 264.062L1221.66 262.648L1222.39 262.326Z" fill="white"/>
<path d="M1223.73 265.631L1224.2 267.122L1223.67 267.289L1223.12 265.824L1223.73 265.631Z" fill="white"/>
<path d="M1224.69 269.038L1224.99 270.568L1224.62 270.645L1224.24 269.141L1224.69 269.038Z" fill="white"/>
<path d="M1225.27 272.522L1225.4 274.078L1225.21 274.104L1224.99 272.548L1225.27 272.522Z" fill="white"/>
<path d="M1225.44 276.045L1225.42 276.817L1225.39 276.045H1225.44Z" fill="white"/>
<path d="M1003.79 276.817L1003.77 276.045H1003.8L1003.79 276.817Z" fill="white"/>
<path d="M1003.79 274.117L1003.83 272.574H1003.92L1003.85 274.117H1003.79Z" fill="white"/>
<path d="M1003.89 270.645L1003.98 269.102L1004.16 269.115L1004.04 270.658L1003.89 270.645Z" fill="white"/>
<path d="M1004.13 267.174L1004.26 265.644L1004.51 265.669L1004.34 267.199L1004.13 267.174Z" fill="white"/>
<path d="M1004.47 263.715L1004.67 262.185L1004.97 262.223L1004.76 263.753L1004.47 263.715Z" fill="white"/>
<path d="M1004.95 260.269L1005.2 258.752L1005.55 258.816L1005.29 260.333L1004.95 260.269Z" fill="white"/>
<path d="M1005.54 256.849L1005.83 255.332L1006.25 255.409L1005.93 256.926L1005.54 256.849Z" fill="white"/>
<path d="M1006.24 253.442L1006.59 251.937L1007.07 252.04L1006.68 253.545L1006.24 253.442Z" fill="white"/>
<path d="M1007.07 250.047L1007.46 248.556L1007.99 248.697L1007.57 250.189L1007.07 250.047Z" fill="white"/>
<path d="M1008 246.692L1008.46 245.213L1009.03 245.393L1008.56 246.859L1008 246.692Z" fill="white"/>
<path d="M1009.06 243.374L1009.56 241.909L1010.19 242.114L1009.66 243.567L1009.06 243.374Z" fill="white"/>
<path d="M1010.23 240.083L1010.78 238.63L1011.45 238.887L1010.87 240.327L1010.23 240.083Z" fill="white"/>
<path d="M1011.51 236.83L1012.1 235.403L1012.82 235.699L1012.19 237.113L1011.51 236.83Z" fill="white"/>
<path d="M1012.9 233.616L1013.55 232.214L1014.3 232.548L1013.63 233.95L1012.9 233.616Z" fill="white"/>
<path d="M1014.41 230.466L1015.1 229.077L1015.87 229.45L1015.16 230.826L1014.41 230.466Z" fill="white"/>
<path d="M1016.03 227.354L1016.76 226.004L1017.55 226.415L1016.79 227.765L1016.03 227.354Z" fill="white"/>
<path d="M1017.74 224.307L1018.53 222.97L1019.33 223.433L1018.53 224.757L1017.74 224.307Z" fill="white"/>
<path d="M1019.56 221.311L1020.4 220L1021.2 220.501L1020.36 221.8L1019.56 221.311Z" fill="white"/>
<path d="M1021.48 218.367L1022.36 217.094L1023.18 217.634L1022.3 218.907L1021.48 218.367Z" fill="white"/>
<path d="M1023.5 215.499L1024.42 214.239L1025.26 214.831L1024.33 216.078L1023.5 215.499Z" fill="white"/>
<path d="M1025.62 212.684L1026.58 211.462L1027.42 212.105L1026.45 213.314L1025.62 212.684Z" fill="white"/>
<path d="M1027.82 209.945L1028.82 208.749L1029.68 209.444L1028.66 210.626L1027.82 209.945Z" fill="white"/>
<path d="M1030.11 207.271L1031.15 206.114L1032.01 206.859L1030.95 208.004L1030.11 207.271Z" fill="white"/>
<path d="M1032.5 204.673L1033.58 203.555L1034.43 204.339L1033.34 205.458L1032.5 204.673Z" fill="white"/>
<path d="M1034.97 202.153L1036.08 201.061L1036.94 201.909L1035.8 202.989L1034.97 202.153Z" fill="white"/>
<path d="M1037.52 199.71L1038.68 198.656L1039.52 199.556L1038.36 200.598L1037.52 199.71Z" fill="white"/>
<path d="M1040.15 197.345L1041.34 196.329L1042.18 197.28L1040.98 198.283L1040.15 197.345Z" fill="white"/>
<path d="M1042.85 195.069L1044.08 194.092L1044.91 195.095L1043.68 196.059L1042.85 195.069Z" fill="white"/>
<path d="M1045.63 192.883L1046.88 191.945L1047.7 192.986L1046.45 193.912L1045.63 192.883Z" fill="white"/>
<path d="M1048.49 190.787L1049.78 189.887L1050.56 190.967L1049.28 191.855L1048.49 190.787Z" fill="white"/>
<path d="M1051.42 188.782L1052.73 187.92L1053.48 189.026L1052.17 189.887L1051.42 188.782Z" fill="white"/>
<path d="M1055.75 186.002L1054.4 186.818L1055.13 187.953L1056.47 187.136L1055.75 186.002Z" fill="white"/>
<path d="M1057.46 185.04L1058.82 184.269L1059.52 185.452L1058.15 186.21L1057.46 185.04Z" fill="white"/>
<path d="M1060.57 183.317L1061.96 182.597L1062.61 183.793L1061.23 184.526L1060.57 183.317Z" fill="white"/>
<path d="M1063.73 181.697L1065.14 181.016L1065.78 182.25L1064.35 182.932L1063.73 181.697Z" fill="white"/>
<path d="M1066.95 180.167L1068.39 179.524L1068.98 180.797L1067.54 181.427L1066.95 180.167Z" fill="white"/>
<path d="M1070.22 178.74L1071.67 178.149L1072.22 179.447L1070.77 180.039L1070.22 178.74Z" fill="white"/>
<path d="M1073.52 177.429L1075 176.876L1075.51 178.187L1074.04 178.74L1073.52 177.429Z" fill="white"/>
<path d="M1076.87 176.207L1078.37 175.693L1078.85 177.043L1077.35 177.544L1076.87 176.207Z" fill="white"/>
<path d="M1080.27 175.088L1081.77 174.626L1082.21 176.001L1080.7 176.451L1080.27 175.088Z" fill="white"/>
<path d="M1083.7 174.086L1085.21 173.674L1085.61 175.063L1084.08 175.474L1083.7 174.086Z" fill="white"/>
<path d="M1087.15 173.173L1088.69 172.813L1089.03 174.24L1087.5 174.587L1087.15 173.173Z" fill="white"/>
<path d="M1090.64 172.388L1092.18 172.067L1092.48 173.507L1090.94 173.816L1090.64 172.388Z" fill="white"/>
<path d="M1094.14 171.694L1095.7 171.437L1095.96 172.89L1094.41 173.16L1094.14 171.694Z" fill="white"/>
<path d="M1097.67 171.128L1099.24 170.91L1099.45 172.388L1097.89 172.594L1097.67 171.128Z" fill="white"/>
<path d="M1101.22 170.653L1102.8 170.486L1102.96 171.977L1101.39 172.144L1101.22 170.653Z" fill="white"/>
<path d="M1104.79 170.293L1106.36 170.177L1106.48 171.681L1104.91 171.81L1104.79 170.293Z" fill="white"/>
<path d="M1108.36 170.048L1109.94 169.971L1110.01 171.501L1108.43 171.566L1108.36 170.048Z" fill="white"/>
<path d="M1111.93 169.907L1113.51 169.881L1113.54 171.424L1111.96 171.437L1111.93 169.907Z" fill="white"/>
<path d="M1115.51 169.881L1117.1 169.907L1117.07 171.437L1115.49 171.424L1115.51 169.881Z" fill="white"/>
<path d="M1119.1 169.958L1120.67 170.036L1120.6 171.566L1119.02 171.501L1119.1 169.958Z" fill="white"/>
<path d="M1122.67 170.164L1124.25 170.28L1124.13 171.797L1122.55 171.681L1122.67 170.164Z" fill="white"/>
<path d="M1126.24 170.46L1127.81 170.64L1127.64 172.131L1126.07 171.964L1126.24 170.46Z" fill="white"/>
<path d="M1129.8 170.884L1131.35 171.103L1131.14 172.581L1129.57 172.363L1129.8 170.884Z" fill="white"/>
<path d="M1133.33 171.398L1134.9 171.668L1134.63 173.121L1133.08 172.864L1133.33 171.398Z" fill="white"/>
<path d="M1136.86 172.041L1138.4 172.35L1138.1 173.79L1136.56 173.481L1136.86 172.041Z" fill="white"/>
<path d="M1140.35 172.774L1141.89 173.134L1141.54 174.561L1140.01 174.201L1140.35 172.774Z" fill="white"/>
<path d="M1143.83 173.623L1145.36 174.034L1144.96 175.436L1143.43 175.024L1143.83 173.623Z" fill="white"/>
<path d="M1147.27 174.583L1146.83 175.958L1148.34 176.416L1148.78 175.04L1147.27 174.583Z" fill="white"/>
<path d="M1150.68 175.641L1152.17 176.143L1151.69 177.493L1150.21 176.991L1150.68 175.641Z" fill="white"/>
<path d="M1154.05 176.811L1155.53 177.364L1155.01 178.689L1153.54 178.136L1154.05 176.811Z" fill="white"/>
<path d="M1157.39 178.084L1158.85 178.689L1158.3 179.974L1156.83 179.383L1157.39 178.084Z" fill="white"/>
<path d="M1160.68 179.46L1162.12 180.103L1161.52 181.376L1160.09 180.733L1160.68 179.46Z" fill="white"/>
<path d="M1163.92 180.939L1165.33 181.633L1164.71 182.867L1163.29 182.186L1163.92 180.939Z" fill="white"/>
<path d="M1167.11 182.52L1168.51 183.253L1167.85 184.462L1166.45 183.729L1167.11 182.52Z" fill="white"/>
<path d="M1170.25 184.204L1171.62 184.976L1170.93 186.146L1169.56 185.374L1170.25 184.204Z" fill="white"/>
<path d="M1173.33 185.979L1174.67 186.789L1173.95 187.933L1172.6 187.123L1173.33 185.979Z" fill="white"/>
<path d="M1176.36 187.843L1177.66 188.705L1176.91 189.81L1175.59 188.962L1176.36 187.843Z" fill="white"/>
<path d="M1179.32 189.799L1178.53 190.877L1179.81 191.774L1180.6 190.696L1179.32 189.799Z" fill="white"/>
<path d="M1182.21 191.867L1183.46 192.806L1182.66 193.835L1181.39 192.909L1182.21 191.867Z" fill="white"/>
<path d="M1185.03 194.015L1186.25 194.992L1185.42 195.982L1184.2 195.018L1185.03 194.015Z" fill="white"/>
<path d="M1187.77 196.252L1188.96 197.268L1188.12 198.206L1186.93 197.203L1187.77 196.252Z" fill="white"/>
<path d="M1190.44 198.579L1191.59 199.621L1190.76 200.508L1189.59 199.466L1190.44 198.579Z" fill="white"/>
<path d="M1193.03 200.983L1194.15 202.063L1193.3 202.899L1192.17 201.819L1193.03 200.983Z" fill="white"/>
<path d="M1195.54 203.465L1196.62 204.583L1195.78 205.368L1194.69 204.262L1195.54 203.465Z" fill="white"/>
<path d="M1197.97 206.023L1199.01 207.181L1198.16 207.914L1197.11 206.769L1197.97 206.023Z" fill="white"/>
<path d="M1200.3 208.659L1201.31 209.855L1200.47 210.536L1199.46 209.354L1200.3 208.659Z" fill="white"/>
<path d="M1202.55 211.372L1203.51 212.594L1202.68 213.224L1201.71 212.015L1202.55 211.372Z" fill="white"/>
<path d="M1204.71 214.149L1205.64 215.397L1204.81 215.988L1203.87 214.741L1204.71 214.149Z" fill="white"/>
<path d="M1206.77 216.991L1207.65 218.277L1206.85 218.817L1205.95 217.544L1206.77 216.991Z" fill="white"/>
<path d="M1208.74 219.897L1209.57 221.208L1208.78 221.71L1207.93 220.411L1208.74 219.897Z" fill="white"/>
<path d="M1210.62 222.867L1211.41 224.204L1210.62 224.654L1209.81 223.33L1210.62 222.867Z" fill="white"/>
<path d="M1212.38 225.901L1213.13 227.251L1212.35 227.663L1211.59 226.313L1212.38 225.901Z" fill="white"/>
<path d="M1214.04 228.974L1214.74 230.363L1213.99 230.723L1213.28 229.36L1214.04 228.974Z" fill="white"/>
<path d="M1215.6 232.111L1216.25 233.513L1215.52 233.847L1214.86 232.446L1215.6 232.111Z" fill="white"/>
<path d="M1217.05 235.287L1217.65 236.714L1216.95 237.01L1216.33 235.583L1217.05 235.287Z" fill="white"/>
<path d="M1218.38 238.527L1218.93 239.967L1218.28 240.211L1217.7 238.771L1218.38 238.527Z" fill="white"/>
<path d="M1219.6 241.793L1220.1 243.259L1219.5 243.452L1218.97 241.999L1219.6 241.793Z" fill="white"/>
<path d="M1220.71 245.097L1221.16 246.576L1220.6 246.743L1220.13 245.277L1220.71 245.097Z" fill="white"/>
<path d="M1221.7 248.44L1222.1 249.932L1221.6 250.06L1221.17 248.582L1221.7 248.44Z" fill="white"/>
<path d="M1222.58 251.809L1222.93 253.313L1222.49 253.416L1222.1 251.925L1222.58 251.809Z" fill="white"/>
<path d="M1223.34 255.203L1223.65 256.72L1223.25 256.798L1222.92 255.293L1223.34 255.203Z" fill="white"/>
<path d="M1223.99 258.623L1224.24 260.153L1223.9 260.205L1223.62 258.688L1223.99 258.623Z" fill="white"/>
<path d="M1224.52 262.069L1224.71 263.599L1224.42 263.625L1224.21 262.108L1224.52 262.069Z" fill="white"/>
<path d="M1224.92 265.515L1225.07 267.045L1224.85 267.071L1224.67 265.541L1224.92 265.515Z" fill="white"/>
<path d="M1225.21 268.974L1225.29 270.516L1225.16 270.529L1225.03 268.986L1225.21 268.974Z" fill="white"/>
<path d="M1225.37 272.445L1225.41 273.988H1225.35L1225.28 272.445H1225.37Z" fill="white"/>
<path d="M1225.42 276.045V276.817L1225.41 276.045H1225.42Z" fill="white"/>
<defs>
<radialGradient id="paint0_radial_6_6" cx="0" cy="0" r="1" gradientUnits="userSpaceOnUse" gradientTransform="translate(0.180709 708.181) scale(885)">
<stop stop-color="white"/>
<stop offset="1" stop-color="#E7EFFA"/>
</radialGradient>
<linearGradient id="paint1_linear_6_6" x1="1253.54" y1="385.694" x2="1333.21" y2="385.694" gradientUnits="userSpaceOnUse">
<stop stop-color="white"/>
<stop offset="1" stop-color="#010101"/>
</linearGradient>
<linearGradient id="paint2_linear_6_6" x1="1222.1" y1="386.272" x2="1362.48" y2="386.272" gradientUnits="userSpaceOnUse">
<stop stop-color="white"/>
<stop offset="1" stop-color="#010101"/>
</linearGradient>
<linearGradient id="paint3_linear_6_6" x1="898" y1="145.169" x2="981.059" y2="145.169" gradientUnits="userSpaceOnUse">
<stop stop-color="white"/>
<stop offset="1" stop-color="#010101"/>
</linearGradient>
<linearGradient id="paint4_linear_6_6" x1="875.51" y1="146.044" x2="1003.39" y2="146.044" gradientUnits="userSpaceOnUse">
<stop stop-color="white"/>
<stop offset="1" stop-color="#010101"/>
</linearGradient>
<clipPath id="clip0_6_6">
<rect width="1770" height="1770" fill="white" transform="translate(-885 -177)"/>
</clipPath>
</defs>
</svg>
