<svg width="28" height="29" viewBox="0 0 28 29" fill="none" xmlns="http://www.w3.org/2000/svg">
<path d="M10.0625 2.625V7.54688H8.09375V5.57812H2.1875V23.2969H4.15625V24.2812C4.15625 25.0811 4.44336 25.7681 5.01758 26.3423C5.6123 26.937 6.30957 27.2344 7.10938 27.2344C7.90918 27.2344 8.59619 26.937 9.17041 26.3423C9.76514 25.7681 10.0625 25.0811 10.0625 24.2812V23.2969H25.8125V7.54688H21.875V2.625H10.0625ZM12.0312 4.59375H19.9062V9.51562H12.0312V4.59375ZM4.15625 7.54688H6.125V21.3281H4.15625V7.54688ZM8.09375 9.51562H10.0625V11.4844H21.875V9.51562H23.8438V21.3281H8.09375V9.51562ZM11.0469 13.4531V15.4219H13.0156V13.4531H11.0469ZM14.9844 13.4531V15.4219H16.9531V13.4531H14.9844ZM18.9219 13.4531V15.4219H20.8906V13.4531H18.9219ZM11.0469 17.3906V19.3594H13.0156V17.3906H11.0469ZM14.9844 17.3906V19.3594H16.9531V17.3906H14.9844ZM18.9219 17.3906V19.3594H20.8906V17.3906H18.9219ZM6.125 23.2969H8.09375V24.2812C8.09375 24.5479 7.99121 24.7837 7.78613 24.9888C7.60156 25.1733 7.37598 25.2656 7.10938 25.2656C6.84277 25.2656 6.60693 25.1733 6.40186 24.9888C6.21729 24.7837 6.125 24.5479 6.125 24.2812V23.2969Z" fill="black"/>
</svg>
