<svg width="29" height="30" viewBox="0 0 29 30" fill="none" xmlns="http://www.w3.org/2000/svg">
<path d="M16.2047 1.40869V3.33713C18.1121 3.33713 19.899 3.81924 21.5655 4.78346C23.1516 5.72759 24.4165 6.99312 25.3602 8.58007C26.3239 10.2474 26.8058 12.0352 26.8058 13.9435H28.7332C28.7332 11.6736 28.161 9.56437 27.0166 7.61585C25.9123 5.72759 24.4165 4.23104 22.5292 3.12621C20.5817 1.9812 18.4735 1.40869 16.2047 1.40869ZM6.23617 4.30135C5.69408 4.30135 5.22225 4.47209 4.8207 4.81359L1.71869 7.97743L1.80904 7.91717C1.3071 8.33901 0.975821 8.8613 0.815199 9.48402C0.674655 10.1067 0.714811 10.7094 0.935665 11.2919C1.49784 12.8588 2.25075 14.4658 3.1944 16.113C4.51953 18.383 6.09563 20.4219 7.9227 22.2298C10.854 25.1827 14.4981 27.5129 18.855 29.2204H18.8851C19.4674 29.4212 20.0496 29.4614 20.6319 29.3409C21.2342 29.2204 21.7663 28.9592 22.228 28.5575L25.2698 25.5142C25.6714 25.1124 25.8721 24.6202 25.8721 24.0377C25.8721 23.4351 25.6714 22.9329 25.2698 22.5311L21.3246 18.5537C20.923 18.1519 20.4211 17.9511 19.8187 17.9511C19.2164 17.9511 18.7145 18.1519 18.3129 18.5537L16.4156 20.4821C14.8897 19.759 13.5645 18.8651 12.4402 17.8004C11.3158 16.7157 10.4224 15.3999 9.75981 13.8531L11.6873 11.9247C12.1089 11.4828 12.3197 10.9605 12.3197 10.3578C12.3197 9.73512 12.0788 9.23292 11.5969 8.85125L11.6873 8.94165L7.65165 4.81359C7.2501 4.47209 6.77827 4.30135 6.23617 4.30135ZM16.2047 5.26557V7.194C17.4295 7.194 18.5538 7.49532 19.5778 8.09796C20.6218 8.70059 21.445 9.5242 22.0473 10.5688C22.6497 11.5932 22.9508 12.7182 22.9508 13.9435H24.8783C24.8783 12.3767 24.4868 10.9203 23.7038 9.57442C22.9207 8.2687 21.8767 7.22413 20.5716 6.44071C19.2264 5.65728 17.7708 5.26557 16.2047 5.26557ZM6.23617 6.22978C6.29641 6.22978 6.36668 6.25992 6.44699 6.32018L10.3923 10.3578C10.4123 10.4382 10.3923 10.5085 10.332 10.5688L7.47095 13.4012L7.68177 14.0038L8.07328 14.8475C8.39452 15.5305 8.76596 16.1934 9.18759 16.8362C9.76984 17.7401 10.4123 18.5135 11.115 19.1563C12.0587 20.0804 13.1931 20.9241 14.5182 21.6874C15.1808 22.0691 15.743 22.3503 16.2047 22.5311L16.8071 22.8023L19.7284 19.8795C19.7685 19.8393 19.7986 19.8192 19.8187 19.8192C19.8388 19.8192 19.8689 19.8393 19.9091 19.8795L23.9748 23.9473C24.015 23.9875 24.035 24.0176 24.035 24.0377C24.035 24.0377 24.015 24.0578 23.9748 24.098L20.9632 27.081C20.5214 27.4627 20.0396 27.5631 19.5176 27.3823C15.4217 25.7954 12.0085 23.6259 9.27794 20.8739C7.59142 19.1865 6.11571 17.2681 4.85081 15.1187C3.94732 13.5719 3.2446 12.0754 2.74266 10.629V10.5989C2.66235 10.4181 2.65231 10.2072 2.71254 9.96613C2.77277 9.70499 2.8832 9.50411 3.04382 9.36349L6.02536 6.32018C6.08559 6.25992 6.15586 6.22978 6.23617 6.22978ZM16.2047 9.12244V11.0509C17.0078 11.0509 17.6905 11.3321 18.2527 11.8946C18.8148 12.457 19.0959 13.14 19.0959 13.9435H21.0234C21.0234 13.0798 20.8025 12.2762 20.3608 11.533C19.9392 10.7897 19.3569 10.2072 18.6141 9.78534C17.8712 9.34341 17.0681 9.12244 16.2047 9.12244Z" fill="black"/>
</svg>
