<svg width="560" height="415" viewBox="0 0 560 415" fill="none" xmlns="http://www.w3.org/2000/svg">
<path d="M322.881 123.271C322.881 168.228 281.675 204.683 230.846 204.683C180.016 204.683 138.81 168.228 138.81 123.271C138.81 78.3144 180.016 41.8596 230.846 41.8596C281.675 41.8596 322.881 78.3144 322.881 123.271Z" fill="url(#paint0_linear_39_812)"/>
<path d="M294.756 181.904C294.521 181.904 294.308 181.829 294.137 181.678C293.796 181.377 293.796 180.888 294.137 180.587C311.358 165.351 320.832 145.11 320.832 123.572C320.832 102.034 311.358 81.7755 294.137 66.5578C276.916 51.3213 254.041 42.9319 229.672 42.9319C205.303 42.9319 182.427 51.3213 165.228 66.5578C164.887 66.8588 164.332 66.8588 163.99 66.5578C163.649 66.2569 163.649 65.7678 163.99 65.4668C181.531 49.9482 204.876 41.3894 229.693 41.3894C254.51 41.3894 277.834 49.9482 295.396 65.4668C312.937 80.9855 322.603 101.639 322.603 123.591C322.603 145.543 312.937 166.197 295.396 181.716C295.225 181.866 294.991 181.941 294.777 181.941L294.756 181.904Z" fill="url(#paint1_linear_39_812)"/>
<path d="M300.88 123.272C300.88 157.488 269.533 185.233 230.845 185.233C192.158 185.233 160.811 157.488 160.811 123.272C160.811 89.0553 192.158 61.3098 230.845 61.3098C269.533 61.3098 300.88 89.0553 300.88 123.272Z" fill="url(#paint2_linear_39_812)"/>
<path d="M230.846 186.023C191.752 186.023 159.936 157.883 159.936 123.29C159.936 88.6979 191.752 60.5574 230.846 60.5574C231.336 60.5574 231.72 60.9148 231.72 61.3286C231.72 61.7424 231.315 62.0998 230.846 62.0998C192.713 62.0998 161.686 89.5443 161.686 123.272C161.686 156.999 192.713 184.443 230.846 184.443C231.336 184.443 231.72 184.801 231.72 185.214C231.72 185.628 231.315 185.986 230.846 185.986V186.023Z" fill="url(#paint3_linear_39_812)"/>
<path d="M248.984 135.122H229.928C226.023 135.122 222.843 132.301 222.843 128.858V105.496C222.843 102.486 225.596 100.059 228.989 100.059C232.382 100.059 235.135 102.505 235.135 105.496V124.25H248.962C252.355 124.25 255.108 126.695 255.108 129.705C255.108 132.714 252.355 135.141 248.962 135.141L248.984 135.122Z" fill="url(#paint4_linear_39_812)"/>
<path d="M87.9595 151.562L187.101 239.257C206.498 256.412 237.93 256.412 257.327 239.257L269.17 228.779C273.652 224.829 273.652 218.396 269.17 214.446L228.712 178.649C224.23 174.68 216.975 174.68 212.515 178.649L192.286 196.538C190.707 197.949 188.146 197.949 186.546 196.538L137.487 153.142C135.93 151.75 135.93 149.512 137.487 148.139L157.439 130.494C161.921 126.544 161.921 120.111 157.439 116.161L115.892 79.4051C111.475 75.4925 104.327 75.4361 99.824 79.2734L88.5783 88.8856C68.605 105.947 68.3276 134.181 87.9595 151.543V151.562Z" fill="url(#paint5_linear_39_812)"/>
<path d="M91.0749 90.6538L146.791 139.937L148.69 138.244L157.461 130.494C161.942 126.544 161.942 120.111 157.461 116.161L115.914 79.4051C111.496 75.4925 104.348 75.4361 99.8453 79.2734L88.5996 88.8856L91.0963 90.6538H91.0749Z" fill="url(#paint6_linear_39_812)"/>
<path d="M146.77 141.047L90.4774 91.237L87.2552 88.9421L99.2264 78.7092C104.028 74.6085 111.795 74.6649 116.511 78.8409L158.058 115.597C162.859 119.848 162.859 126.789 158.058 131.04L146.77 141.028V141.047ZM89.9013 88.848L91.6724 90.1272L146.748 138.865L156.799 129.968C158.805 128.2 159.893 125.848 159.893 123.346C159.893 120.845 158.784 118.493 156.799 116.725L115.252 79.9695C111.198 76.3767 104.54 76.3391 100.421 79.8566L89.8799 88.8669L89.9013 88.848Z" fill="url(#paint7_linear_39_812)"/>
<path d="M204.385 189.221L260.08 238.504L261.979 236.811L270.75 229.061C275.231 225.092 275.231 218.678 270.75 214.728L229.203 177.972C224.785 174.059 217.637 174.003 213.134 177.84L201.867 187.452L204.364 189.221H204.385Z" fill="url(#paint8_linear_39_812)"/>
<path d="M260.101 239.614L203.809 189.804L200.587 187.509L212.558 177.276C217.359 173.175 225.127 173.232 229.864 177.408L271.411 214.163C273.737 216.233 275.017 218.96 275.017 221.876C275.017 224.791 273.737 227.538 271.411 229.588L260.101 239.576V239.614ZM203.233 187.415L205.004 188.694L260.08 237.432L270.131 228.535C272.137 226.766 273.225 224.415 273.225 221.913C273.225 219.412 272.115 217.06 270.131 215.292L228.584 178.536C224.529 174.944 217.872 174.906 213.753 178.424L203.212 187.434L203.233 187.415Z" fill="url(#paint9_linear_39_812)"/>
<path d="M129.272 115.653C129.058 115.653 128.824 115.578 128.653 115.427L94.7026 85.4058C94.3612 85.1049 94.3612 84.6158 94.7026 84.3148C95.044 84.0139 95.5988 84.0139 95.9403 84.3148L129.891 114.336C130.232 114.637 130.232 115.126 129.891 115.446C129.72 115.597 129.485 115.672 129.272 115.672V115.653Z" fill="url(#paint10_linear_39_812)"/>
<path d="M264.284 235.1C264.049 235.1 263.836 235.024 263.665 234.874L229.715 204.852C229.373 204.551 229.373 204.062 229.715 203.761C230.056 203.46 230.611 203.46 230.952 203.761L264.903 233.783C265.244 234.084 265.244 234.573 264.903 234.893C264.732 235.043 264.497 235.118 264.284 235.118V235.1Z" fill="url(#paint11_linear_39_812)"/>
<path d="M413.23 388.612L283.276 371.607C268.573 369.689 258.437 357.594 260.613 344.577L307.218 65.7865C309.395 52.7884 323.073 43.8158 337.754 45.7345L467.709 62.7392C482.411 64.6578 492.547 76.753 490.371 89.7698L443.766 368.56C441.59 381.558 427.911 390.55 413.23 388.612Z" fill="url(#paint12_linear_39_812)"/>
<path d="M434.697 356.145L273.353 335.021L317.375 71.7683L478.72 92.8737L434.697 356.145Z" fill="#231F20"/>
<path d="M317.36 71.7618L314.034 91.5222L475.383 112.626L478.709 92.866L317.36 71.7618Z" fill="#231F20"/>
<path d="M351.304 371.25C350.792 371.25 350.28 371.212 349.747 371.156C346.973 370.798 344.519 369.501 342.833 367.488C341.147 365.494 340.464 363.03 340.87 360.566C341.275 358.101 342.747 355.938 345.009 354.452C347.271 352.966 350.045 352.345 352.819 352.722C355.593 353.079 358.047 354.377 359.733 356.39C361.419 358.384 362.102 360.848 361.696 363.312C360.928 367.939 356.404 371.269 351.283 371.269L351.304 371.25ZM351.283 354.17C349.427 354.17 347.613 354.697 346.076 355.694C344.198 356.935 342.961 358.741 342.619 360.791C342.278 362.842 342.854 364.892 344.262 366.547C345.671 368.203 347.698 369.294 350.024 369.595C354.825 370.215 359.285 367.281 359.989 363.049C360.331 360.998 359.755 358.948 358.346 357.293C356.959 355.637 354.911 354.546 352.585 354.245C352.158 354.189 351.71 354.17 351.283 354.17Z" fill="#EDF1F7"/>
<path d="M374.628 69.2475C374.457 69.2475 374.286 69.2475 374.137 69.2099C373.241 69.097 372.451 68.6832 371.918 68.0436C371.384 67.4041 371.15 66.614 371.278 65.824C371.406 65.034 371.875 64.338 372.601 63.8489C373.326 63.3786 374.222 63.1717 375.119 63.2846C376.015 63.3975 376.804 63.8113 377.338 64.4697C377.871 65.1092 378.106 65.8992 377.978 66.6893C377.722 68.1753 376.271 69.2475 374.628 69.2475ZM374.628 64.8082C374.286 64.8082 373.945 64.9023 373.668 65.0904C373.326 65.3161 373.091 65.6547 373.027 66.0309C372.963 66.4071 373.07 66.7833 373.326 67.1031C373.582 67.4041 373.966 67.611 374.393 67.6674C374.82 67.7239 375.247 67.6298 375.609 67.4041C375.951 67.1784 376.186 66.8398 376.25 66.4636C376.314 66.0874 376.207 65.6923 375.951 65.3914C375.695 65.0716 375.311 64.8835 374.884 64.827C374.799 64.827 374.713 64.827 374.649 64.827L374.628 64.8082Z" fill="#EDF1F7"/>
<path d="M427.037 76.1134C426.866 76.1134 426.695 76.1134 426.546 76.0758L385.383 70.696C384.487 70.5831 383.697 70.1505 383.164 69.5109C382.63 68.8714 382.395 68.0813 382.523 67.2913C382.651 66.5012 383.121 65.8052 383.846 65.335C384.572 64.8647 385.468 64.6578 386.364 64.7707L427.527 70.1505C428.424 70.2633 429.213 70.696 429.747 71.3355C430.28 71.9751 430.515 72.7651 430.365 73.5552C430.237 74.3452 429.768 75.0412 429.042 75.5115C428.445 75.9065 427.762 76.1134 427.037 76.1134ZM385.874 66.2943C385.084 66.2943 384.38 66.821 384.273 67.517C384.209 67.8932 384.316 68.2694 384.572 68.5892C384.828 68.8902 385.212 69.0971 385.639 69.1535L426.802 74.5333C427.698 74.6462 428.509 74.1007 428.658 73.3294C428.722 72.9532 428.616 72.577 428.36 72.2572C428.104 71.9563 427.719 71.7494 427.293 71.6929L386.13 66.3131C386.13 66.3131 385.959 66.3131 385.895 66.3131L385.874 66.2943Z" fill="#EDF1F7"/>
<path d="M435.38 275.599L322.817 260.87C320.982 260.625 319.274 261.754 318.997 263.372L314.665 289.199C314.388 290.816 315.668 292.321 317.503 292.566L413.742 305.15L423.665 317.245L425.436 306.674L430.088 307.275C431.923 307.52 433.63 306.391 433.908 304.774L438.218 278.947C438.496 277.329 437.215 275.824 435.38 275.58V275.599Z" fill="url(#paint13_linear_39_812)"/>
<path d="M413.742 305.94C413.742 305.94 413.657 305.94 413.614 305.94L317.375 293.356C316.266 293.205 315.263 292.698 314.601 291.889C313.918 291.08 313.641 290.102 313.812 289.105L318.122 263.278C318.464 261.228 320.619 259.798 322.924 260.118L348.936 263.522C349.427 263.579 349.747 263.974 349.683 264.407C349.619 264.839 349.171 265.121 348.68 265.065L322.667 261.66C321.323 261.491 320.064 262.319 319.851 263.504L315.54 289.33C315.455 289.914 315.604 290.497 316.01 290.948C316.394 291.418 316.97 291.719 317.631 291.813L413.849 304.416C414.34 304.473 414.66 304.868 414.596 305.301C414.532 305.677 414.148 305.959 413.721 305.959L413.742 305.94Z" fill="#253863"/>
<path d="M453.262 168.548L340.699 153.82C338.864 153.575 337.157 154.704 336.879 156.321L332.569 182.148C332.291 183.766 333.572 185.271 335.407 185.515L431.646 198.1L441.568 210.195L443.34 199.623L447.991 200.225C449.827 200.47 451.534 199.341 451.811 197.723L456.122 171.897C456.399 170.279 455.14 168.774 453.284 168.529L453.262 168.548Z" fill="url(#paint14_linear_39_812)"/>
<path d="M442.102 212.207L431.134 198.833L335.257 186.287C332.953 185.986 331.352 184.067 331.694 182.035C331.758 181.603 332.206 181.321 332.697 181.377C333.166 181.433 333.508 181.829 333.444 182.261C333.337 182.844 333.508 183.409 333.892 183.879C334.297 184.349 334.873 184.65 335.514 184.744L432.115 197.385L440.971 208.201L442.55 198.758L448.056 199.473C448.696 199.567 449.357 199.416 449.891 199.059C450.424 198.702 450.766 198.194 450.872 197.629L453.753 180.437C453.817 180.004 454.265 179.722 454.756 179.778C455.225 179.835 455.567 180.23 455.503 180.662L452.622 197.855C452.451 198.852 451.875 199.717 450.958 200.319C450.04 200.921 448.93 201.166 447.821 201.015L444.044 200.526L442.081 212.207H442.102Z" fill="#253863"/>
<path d="M392.723 212.546L423.345 216.552C425.18 216.797 426.439 218.302 426.162 219.92L421.851 245.746C421.574 247.364 419.867 248.493 418.032 248.248L321.793 235.664L308.349 244.693L310.12 234.121L305.468 233.52C303.633 233.275 302.374 231.77 302.63 230.152L306.941 204.326C307.218 202.708 308.925 201.579 310.76 201.824L392.681 212.546" fill="url(#paint15_linear_39_812)"/>
<path d="M418.544 249.076C418.33 249.076 418.117 249.076 417.925 249.038L357.855 241.175C357.365 241.119 357.045 240.724 357.109 240.291C357.173 239.859 357.621 239.577 358.112 239.633L418.181 247.496C418.842 247.571 419.483 247.439 420.016 247.082C420.55 246.743 420.891 246.217 420.998 245.652L425.308 219.826C425.5 218.641 424.583 217.512 423.217 217.343C422.747 217.286 422.406 216.891 422.47 216.459C422.534 216.026 422.982 215.744 423.473 215.8C425.778 216.101 427.378 218.001 427.037 220.051L422.726 245.878C422.555 246.875 421.979 247.74 421.062 248.342C420.315 248.831 419.461 249.076 418.544 249.076Z" fill="#253863"/>
<path d="M434.697 356.145L273.353 335.021L277.407 310.812L438.752 331.917L434.697 356.145Z" fill="white"/>
<path d="M301.222 326.086C300.432 330.826 295.439 334.099 290.083 333.403C284.727 332.707 281.014 328.287 281.803 323.547C282.593 318.806 287.586 315.533 292.942 316.229C298.298 316.925 302.011 321.346 301.222 326.086Z" fill="#231F20"/>
<path opacity="0.33" d="M420.208 349.618C419.781 349.618 419.355 349.599 418.928 349.543L314.367 335.867C312.062 335.566 310.013 334.475 308.626 332.82C307.239 331.165 306.663 329.114 307.005 327.064C307.709 322.851 312.169 319.897 316.949 320.537L421.51 334.212C426.29 334.833 429.597 338.783 428.893 342.997C428.253 346.834 424.497 349.599 420.251 349.599L420.208 349.618ZM419.184 348C423.003 348.489 426.567 346.157 427.122 342.79C427.399 341.153 426.93 339.517 425.82 338.2C424.711 336.883 423.067 336.018 421.232 335.773L316.671 322.079C312.851 321.59 309.288 323.923 308.733 327.29C308.456 328.926 308.925 330.563 310.035 331.88C311.144 333.215 312.787 334.062 314.623 334.306L419.184 348Z" fill="#AF9CCB"/>
<path d="M327.405 85.9701C327.234 85.9701 327.063 85.9701 326.892 85.9325C325.015 85.6879 323.713 84.1266 323.99 82.4713C324.118 81.6625 324.609 80.9477 325.335 80.4774C326.082 79.9883 326.978 79.7814 327.895 79.9131C329.773 80.1576 331.075 81.7189 330.798 83.3742C330.541 84.8791 329.069 85.9701 327.383 85.9701H327.405ZM327.405 81.4367C327.042 81.4367 326.7 81.5308 326.402 81.7377C326.039 81.9823 325.804 82.3208 325.74 82.7159C325.676 83.1109 325.783 83.5059 326.06 83.8257C326.316 84.1455 326.722 84.3524 327.17 84.4088C328.087 84.5217 328.941 83.9762 329.09 83.1485C329.154 82.7535 329.048 82.3585 328.77 82.0387C328.493 81.7189 328.109 81.512 327.661 81.4556C327.575 81.4556 327.49 81.4556 327.405 81.4556V81.4367Z" fill="white"/>
<path d="M336.922 87.2115C336.751 87.2115 336.58 87.2115 336.41 87.1739C334.532 86.9294 333.23 85.3681 333.508 83.7128C333.785 82.0575 335.535 80.91 337.413 81.1358C338.33 81.2486 339.12 81.6813 339.675 82.3396C340.229 82.998 340.443 83.788 340.315 84.5969C340.187 85.4057 339.696 86.1017 338.97 86.5908C338.373 86.9858 337.669 87.1927 336.922 87.1927V87.2115ZM336.922 82.6782C336.111 82.6782 335.385 83.2049 335.257 83.9573C335.193 84.3523 335.3 84.7474 335.577 85.0671C335.834 85.3869 336.239 85.5938 336.687 85.6503C337.135 85.7067 337.583 85.6126 337.946 85.3681C338.309 85.1236 338.544 84.785 338.608 84.39C338.672 83.9949 338.565 83.5999 338.288 83.2801C338.031 82.9604 337.626 82.7534 337.178 82.697C337.093 82.697 337.007 82.697 336.922 82.697V82.6782Z" fill="white"/>
<path d="M346.268 88.4344C346.098 88.4344 345.927 88.4344 345.756 88.3968C343.878 88.1523 342.577 86.591 342.854 84.9357C343.132 83.2804 344.881 82.1329 346.759 82.3587C348.637 82.6032 349.939 84.1645 349.661 85.8198C349.405 87.3246 347.933 88.4156 346.247 88.4156L346.268 88.4344ZM346.268 83.9011C345.906 83.9011 345.564 83.9952 345.265 84.2021C344.903 84.4466 344.668 84.7852 344.604 85.1802C344.54 85.5752 344.647 85.9703 344.924 86.29C345.18 86.6098 345.586 86.8167 346.034 86.8732C346.951 86.986 347.805 86.4217 347.954 85.6129C348.082 84.804 347.442 84.0328 346.524 83.9199C346.439 83.9199 346.354 83.9199 346.268 83.9199V83.9011Z" fill="white"/>
<path d="M477.61 113.697C477.61 113.697 477.525 113.697 477.482 113.697L328.13 94.1527C327.639 94.0962 327.319 93.7012 327.383 93.2686C327.447 92.8359 327.896 92.5538 328.386 92.6102L477.738 112.154C478.208 112.211 478.549 112.606 478.485 113.038C478.421 113.415 478.037 113.697 477.61 113.697Z" fill="white"/>
<path d="M415.343 281.543C415.343 281.543 415.257 281.543 415.215 281.543L335.535 271.122C335.065 271.065 334.724 270.67 334.788 270.238C334.852 269.805 335.3 269.504 335.791 269.579L415.471 280C415.962 280.057 416.282 280.452 416.218 280.885C416.154 281.28 415.77 281.543 415.343 281.543Z" fill="white"/>
<path d="M368.162 283.969C368.162 283.969 368.077 283.969 368.034 283.969L334.105 279.53C333.614 279.474 333.294 279.079 333.358 278.646C333.422 278.213 333.87 277.931 334.361 277.988L368.269 282.427C368.738 282.483 369.08 282.878 369.016 283.311C368.952 283.706 368.568 283.969 368.141 283.969H368.162Z" fill="white"/>
<path d="M356.724 290.515C356.724 290.515 356.639 290.515 356.596 290.515L332.782 287.393C332.291 287.336 331.971 286.941 332.035 286.509C332.099 286.076 332.569 285.794 333.038 285.85L356.852 288.973C357.322 289.029 357.663 289.424 357.599 289.857C357.535 290.252 357.151 290.515 356.724 290.515Z" fill="white"/>
<path d="M413.934 289.951C413.934 289.951 413.849 289.951 413.806 289.951L378.746 285.361C378.256 285.305 377.935 284.91 377.999 284.477C378.063 284.045 378.512 283.763 379.002 283.819L414.062 288.409C414.553 288.465 414.873 288.86 414.809 289.293C414.745 289.688 414.361 289.951 413.934 289.951Z" fill="white"/>
<path d="M405.612 223.042C405.612 223.042 405.527 223.042 405.484 223.042L325.783 212.621C325.313 212.565 324.972 212.17 325.036 211.737C325.1 211.304 325.548 211.003 326.039 211.079L405.719 221.5C406.188 221.556 406.53 221.951 406.466 222.384C406.402 222.779 406.018 223.042 405.591 223.042H405.612Z" fill="white"/>
<path d="M358.432 225.45C358.432 225.45 358.346 225.45 358.304 225.45L324.375 221.011C323.905 220.954 323.564 220.559 323.628 220.126C323.692 219.694 324.14 219.412 324.631 219.468L358.56 223.907C359.05 223.964 359.371 224.359 359.307 224.791C359.243 225.186 358.858 225.45 358.432 225.45Z" fill="white"/>
<path d="M393.684 238.109C393.684 238.109 393.598 238.109 393.556 238.109L324.78 228.667C324.311 228.61 323.969 228.196 324.055 227.782C324.119 227.35 324.588 227.068 325.057 227.124L393.833 236.567C394.324 236.642 394.644 237.037 394.559 237.451C394.495 237.827 394.111 238.109 393.684 238.109Z" fill="white"/>
<path d="M404.204 231.451C404.204 231.451 404.119 231.451 404.076 231.451L369.016 226.861C368.546 226.804 368.205 226.409 368.269 225.977C368.333 225.563 368.781 225.262 369.272 225.318L404.332 229.908C404.801 229.965 405.143 230.36 405.079 230.792C405.015 231.168 404.631 231.451 404.204 231.451Z" fill="white"/>
<path d="M325.249 104.724L437.813 119.453C439.648 119.697 440.907 121.202 440.651 122.82L436.34 148.647C436.063 150.264 434.356 151.393 432.521 151.149L336.282 138.564L322.838 147.612L324.609 137.041L319.957 136.439C318.122 136.194 316.863 134.689 317.141 133.072L321.451 107.245C321.728 105.627 323.436 104.498 325.271 104.743L325.249 104.724Z" fill="url(#paint16_linear_39_812)"/>
<path d="M436.319 149.418C436.319 149.418 436.234 149.418 436.191 149.418C435.721 149.361 435.38 148.966 435.444 148.534L439.755 122.707C439.861 122.124 439.691 121.56 439.285 121.089C438.901 120.619 438.304 120.318 437.663 120.224L367.778 111.082C367.309 111.026 366.967 110.631 367.031 110.198C367.095 109.765 367.565 109.483 368.034 109.54L437.919 118.682C439.029 118.832 440.032 119.359 440.693 120.149C441.376 120.958 441.654 121.936 441.483 122.933L437.151 148.76C437.087 149.136 436.703 149.418 436.276 149.418H436.319Z" fill="#253863"/>
<path d="M420.059 125.924C420.059 125.924 419.973 125.924 419.931 125.924L340.229 115.503C339.739 115.446 339.418 115.051 339.482 114.618C339.547 114.186 339.995 113.904 340.485 113.96L420.165 124.381C420.635 124.437 420.976 124.833 420.912 125.265C420.848 125.66 420.464 125.924 420.037 125.924H420.059Z" fill="white"/>
<path d="M372.878 128.35C372.878 128.35 372.793 128.35 372.75 128.35L338.842 123.911C338.373 123.854 338.031 123.459 338.095 123.027C338.16 122.594 338.608 122.312 339.098 122.368L373.006 126.808C373.476 126.864 373.817 127.259 373.753 127.692C373.689 128.087 373.305 128.35 372.878 128.35Z" fill="white"/>
<path d="M408.13 140.991C408.13 140.991 408.045 140.991 408.002 140.991L339.226 131.548C338.757 131.473 338.416 131.078 338.501 130.664C338.586 130.231 339.034 129.949 339.504 130.005L408.28 139.448C408.749 139.524 409.09 139.919 409.005 140.332C408.941 140.709 408.557 140.991 408.13 140.991Z" fill="white"/>
<path d="M418.65 134.332C418.65 134.332 418.565 134.332 418.522 134.332L383.462 129.742C382.971 129.686 382.651 129.291 382.715 128.858C382.779 128.425 383.228 128.143 383.718 128.2L418.778 132.789C419.248 132.846 419.589 133.241 419.525 133.673C419.461 134.05 419.077 134.332 418.65 134.332Z" fill="white"/>
<path d="M433.31 175.489C433.31 175.489 433.225 175.489 433.182 175.489L353.481 165.068C353.011 165.012 352.67 164.617 352.734 164.184C352.798 163.751 353.246 163.469 353.737 163.526L433.417 173.947C433.908 174.003 434.228 174.398 434.164 174.831C434.1 175.207 433.716 175.489 433.289 175.489H433.31Z" fill="white"/>
<path d="M386.13 177.916C386.13 177.916 386.044 177.916 386.002 177.916L352.073 173.477C351.582 173.42 351.262 173.025 351.326 172.593C351.39 172.16 351.859 171.878 352.329 171.934L386.236 176.373C386.706 176.43 387.047 176.825 386.983 177.258C386.919 177.653 386.535 177.916 386.108 177.916H386.13Z" fill="white"/>
<path d="M374.692 184.462C374.692 184.462 374.607 184.462 374.564 184.462L350.771 181.339C350.28 181.283 349.96 180.888 350.024 180.455C350.088 180.023 350.536 179.741 351.027 179.797L374.841 182.92C375.332 182.976 375.652 183.371 375.588 183.804C375.524 184.199 375.14 184.462 374.713 184.462H374.692Z" fill="white"/>
<path d="M431.902 183.898C431.902 183.898 431.817 183.898 431.774 183.898L396.714 179.308C396.244 179.251 395.903 178.856 395.967 178.424C396.031 177.991 396.479 177.709 396.97 177.765L432.03 182.355C432.499 182.412 432.841 182.807 432.777 183.239C432.713 183.616 432.329 183.898 431.902 183.898Z" fill="white"/>
<path d="M271.262 364.704L90.7335 382.705C87.2553 383.044 84.1398 380.843 83.7557 377.777L70.7175 275.467C70.7175 275.298 70.8242 275.166 71.0163 275.147L263.409 255.979C263.58 255.979 263.75 256.073 263.772 256.243L276.81 358.609C277.194 361.657 274.719 364.403 271.283 364.742L271.262 364.704Z" fill="url(#paint17_linear_39_812)"/>
<path d="M90.0293 383.496C86.423 383.496 83.2862 381.088 82.8808 377.834L69.8426 275.523C69.7786 274.94 70.2481 274.395 70.9096 274.338L263.302 255.152C263.985 255.076 264.561 255.509 264.647 256.092L277.685 358.459C277.898 360.133 277.365 361.788 276.17 363.105C274.975 364.422 273.268 365.268 271.368 365.456L90.8402 383.458C90.5628 383.496 90.3067 383.496 90.0293 383.496ZM71.6565 275.824L84.6306 377.664C84.972 380.298 87.6607 382.216 90.6482 381.915L271.176 363.914C272.606 363.763 273.886 363.143 274.804 362.146C275.7 361.149 276.106 359.907 275.956 358.628L262.982 256.75L71.6778 275.824H71.6565Z" fill="url(#paint18_linear_39_812)"/>
<path opacity="0.29" d="M262.811 364.704L99.5679 382.705C96.0896 383.044 150.141 321.722 149.757 318.637L70.7175 275.448C70.7175 275.279 70.8242 275.147 71.0163 275.128L263.409 255.96C263.58 255.96 263.75 256.055 263.772 256.224L197.962 313.84C198.346 316.888 266.268 364.365 262.811 364.704Z" fill="#253863"/>
<path d="M71.0162 275.11L150.568 205.511C155.305 201.354 162.667 200.601 168.344 203.705L262.897 255.66C263.067 255.754 263.003 255.961 262.811 255.979L70.6748 275.129" fill="#F7A9B4"/>
<path d="M70.7816 275.919L70.6322 274.771L70.3975 274.564L70.5895 274.395L70.6108 274.376L149.949 204.965C155.007 200.526 162.753 199.755 168.813 203.066L263.366 255.02C263.75 255.227 263.942 255.641 263.857 256.036C263.75 256.431 263.388 256.732 262.939 256.769L70.8029 275.919H70.7816ZM160.747 202.558C157.269 202.558 153.812 203.743 151.208 206.056L73.4489 274.094L260.806 255.415L167.917 204.363C165.698 203.16 163.222 202.558 160.768 202.558H160.747Z" fill="#253863"/>
<path d="M71.0162 275.109L150.568 205.511C155.305 201.354 162.667 200.601 168.344 203.705L262.897 255.659C263.067 255.754 263.003 255.96 262.811 255.979L70.6748 275.128" fill="#231F20"/>
<path d="M159.36 307.896L99.5465 381.502L262.79 365.231L185.97 305.244C177.946 298.98 165.591 300.222 159.36 307.896Z" fill="#F7A9B4"/>
<path d="M97.6901 382.48L158.656 307.445C161.771 303.608 166.615 301.106 171.907 300.579C177.221 300.052 182.555 301.538 186.567 304.661L264.881 365.814L97.6901 382.48ZM174.02 302.027C173.38 302.027 172.739 302.065 172.099 302.122C167.277 302.611 162.902 304.868 160.064 308.348L101.424 380.542L260.72 364.666L185.393 305.827C182.235 303.363 178.181 302.027 174.02 302.027Z" fill="#253863"/>
<path d="M80.7256 224.697L206.476 212.17C214.713 211.342 222.054 215.819 222.865 222.139L230.952 285.606L195.978 314.047L149.779 318.656L104.134 293.393L96.3031 231.921L80.7469 224.716L80.7256 224.697Z" fill="white"/>
<path d="M149.544 319.427L103.281 293.826L95.4495 232.391L83.4783 223.625L206.348 211.38C210.552 210.966 214.649 211.831 217.914 213.825C221.222 215.838 223.27 218.753 223.697 222.045L231.827 285.888L196.319 314.762L149.523 319.427H149.544ZM104.924 292.904L149.949 317.809L195.572 313.257L229.992 285.267L221.969 222.196C221.606 219.355 219.813 216.835 216.933 215.085C214.009 213.298 210.339 212.546 206.54 212.903L83.649 225.149L97.0712 231.356L104.903 292.885L104.924 292.904Z" fill="#253863"/>
<path opacity="0.29" d="M159.36 301.538L99.5465 381.502L262.79 365.231L185.97 298.886C177.946 292.622 165.591 293.864 159.36 301.538Z" fill="#253863"/>
<path d="M159.36 307.896L99.5465 381.502L262.79 365.231L185.97 305.244C177.946 298.98 165.591 300.222 159.36 307.896Z" fill="url(#paint19_linear_39_812)"/>
<path d="M97.6901 382.48L158.656 307.445C161.771 303.608 166.615 301.106 171.907 300.579C177.221 300.052 182.555 301.538 186.567 304.661L264.881 365.814L97.6901 382.48ZM174.02 302.027C173.38 302.027 172.739 302.065 172.099 302.122C167.277 302.611 162.902 304.868 160.064 308.348L101.424 380.542L260.72 364.666L185.393 305.827C182.235 303.363 178.181 302.027 174.02 302.027Z" fill="url(#paint20_linear_39_812)"/>
<path opacity="0.35" d="M165.164 324.186L121.248 378.248L241.131 366.303L184.711 322.249C178.821 317.659 169.752 318.562 165.164 324.205V324.186Z" fill="url(#paint21_linear_39_812)"/>
<path d="M149.288 319.296L70.6108 275.919L71.5498 274.602L150.227 317.96L149.288 319.296Z" fill="#253863"/>
<path d="M198.56 314.367L197.322 313.276L263.132 255.509L264.369 256.6L198.56 314.367Z" fill="#253863"/>
<path d="M99.76 260.23L77.8235 262.412L74.3026 234.705C73.6624 229.588 77.8022 224.98 83.6064 224.396L84.6093 224.302C90.3922 223.719 95.6203 227.406 96.2604 232.523L99.7814 260.23H99.76Z" fill="#EDF1F7"/>
<path d="M77.0552 263.278L73.4276 234.799C73.0862 232.109 73.9397 229.475 75.8389 227.368C77.7381 225.262 80.4481 223.926 83.4783 223.625L84.4812 223.531C87.5114 223.23 90.4988 223.983 92.8675 225.676C95.2574 227.35 96.7512 229.757 97.0926 232.447L100.72 260.926L77.0339 263.297L77.0552 263.278ZM85.8042 225.036C85.4415 225.036 85.0787 225.036 84.6946 225.092L83.6917 225.186C81.131 225.45 78.8264 226.56 77.226 228.347C75.6255 230.134 74.9 232.372 75.1774 234.629L78.613 261.566L98.7997 259.553L95.3641 232.617C95.0867 230.341 93.8064 228.309 91.7792 226.898C90.0507 225.676 87.9595 225.036 85.7829 225.036H85.8042Z" fill="#253863"/>
<path d="M114.676 245.803C114.228 245.803 113.844 245.502 113.801 245.107C113.737 244.674 114.1 244.298 114.569 244.242L205.666 235.156C206.156 235.1 206.583 235.419 206.647 235.833C206.711 236.266 206.348 236.642 205.879 236.699L114.783 245.784C114.783 245.784 114.719 245.784 114.676 245.784V245.803Z" fill="#253863"/>
<path d="M118.154 273.21C117.706 273.21 117.343 272.909 117.279 272.514C117.215 272.081 117.578 271.705 118.048 271.649L209.144 262.563C209.613 262.507 210.061 262.826 210.125 263.259C210.189 263.692 209.827 264.068 209.357 264.124L118.261 273.21C118.261 273.21 118.197 273.21 118.154 273.21Z" fill="#253863"/>
<path d="M116.383 259.346C115.935 259.346 115.551 259.045 115.508 258.65C115.444 258.218 115.807 257.842 116.276 257.785L155.647 253.854C156.116 253.816 156.564 254.117 156.629 254.55C156.671 254.982 156.33 255.359 155.86 255.415L116.49 259.346C116.49 259.346 116.426 259.346 116.383 259.346Z" fill="#253863"/>
<path d="M166.06 254.399C165.612 254.399 165.228 254.098 165.185 253.703C165.121 253.271 165.484 252.894 165.954 252.838L207.394 248.719C207.885 248.681 208.312 248.982 208.376 249.415C208.44 249.847 208.077 250.223 207.607 250.28L166.188 254.399C166.188 254.399 166.124 254.399 166.082 254.399H166.06Z" fill="#253863"/>
<path d="M120.139 288.747C119.691 288.747 119.306 288.446 119.264 288.051C119.2 287.619 119.563 287.242 120.032 287.186L159.403 283.255C159.872 283.217 160.32 283.518 160.384 283.951C160.427 284.383 160.085 284.759 159.616 284.816L120.245 288.747C120.245 288.747 120.181 288.747 120.139 288.747Z" fill="#253863"/>
<defs>
<linearGradient id="paint0_linear_39_812" x1="138.81" y1="123.271" x2="322.881" y2="123.271" gradientUnits="userSpaceOnUse">
<stop stop-color="white"/>
<stop offset="1" stop-color="#231F20"/>
</linearGradient>
<linearGradient id="paint1_linear_39_812" x1="163.713" y1="111.647" x2="322.582" y2="111.647" gradientUnits="userSpaceOnUse">
<stop stop-color="white"/>
<stop offset="1" stop-color="#231F20"/>
</linearGradient>
<linearGradient id="paint2_linear_39_812" x1="160.811" y1="123.272" x2="300.88" y2="123.272" gradientUnits="userSpaceOnUse">
<stop stop-color="white"/>
<stop offset="1" stop-color="#231F20"/>
</linearGradient>
<linearGradient id="paint3_linear_39_812" x1="159.936" y1="123.272" x2="231.72" y2="123.272" gradientUnits="userSpaceOnUse">
<stop stop-color="white"/>
<stop offset="1" stop-color="#231F20"/>
</linearGradient>
<linearGradient id="paint4_linear_39_812" x1="222.843" y1="117.572" x2="255.151" y2="117.572" gradientUnits="userSpaceOnUse">
<stop stop-color="white"/>
<stop offset="1" stop-color="#231F20"/>
</linearGradient>
<linearGradient id="paint5_linear_39_812" x1="73.4276" y1="164.278" x2="272.542" y2="164.278" gradientUnits="userSpaceOnUse">
<stop stop-color="white"/>
<stop offset="1" stop-color="#231F20"/>
</linearGradient>
<linearGradient id="paint6_linear_39_812" x1="88.5783" y1="108.185" x2="160.811" y2="108.185" gradientUnits="userSpaceOnUse">
<stop stop-color="white"/>
<stop offset="1" stop-color="#231F20"/>
</linearGradient>
<linearGradient id="paint7_linear_39_812" x1="87.2552" y1="108.355" x2="161.686" y2="108.355" gradientUnits="userSpaceOnUse">
<stop stop-color="white"/>
<stop offset="1" stop-color="#231F20"/>
</linearGradient>
<linearGradient id="paint8_linear_39_812" x1="201.91" y1="206.752" x2="274.121" y2="206.752" gradientUnits="userSpaceOnUse">
<stop stop-color="white"/>
<stop offset="1" stop-color="#231F20"/>
</linearGradient>
<linearGradient id="paint9_linear_39_812" x1="200.587" y1="206.921" x2="275.017" y2="206.921" gradientUnits="userSpaceOnUse">
<stop stop-color="white"/>
<stop offset="1" stop-color="#231F20"/>
</linearGradient>
<linearGradient id="paint10_linear_39_812" x1="94.4465" y1="99.8711" x2="130.168" y2="99.8711" gradientUnits="userSpaceOnUse">
<stop stop-color="white"/>
<stop offset="1" stop-color="#231F20"/>
</linearGradient>
<linearGradient id="paint11_linear_39_812" x1="229.48" y1="219.318" x2="265.18" y2="219.318" gradientUnits="userSpaceOnUse">
<stop stop-color="white"/>
<stop offset="1" stop-color="#231F20"/>
</linearGradient>
<linearGradient id="paint12_linear_39_812" x1="260.315" y1="217.173" x2="490.691" y2="217.173" gradientUnits="userSpaceOnUse">
<stop stop-color="white"/>
<stop offset="1" stop-color="#231F20"/>
</linearGradient>
<linearGradient id="paint13_linear_39_812" x1="314.644" y1="289.048" x2="438.24" y2="289.048" gradientUnits="userSpaceOnUse">
<stop stop-color="white"/>
<stop offset="1" stop-color="#010101"/>
</linearGradient>
<linearGradient id="paint14_linear_39_812" x1="332.547" y1="181.998" x2="456.122" y2="181.998" gradientUnits="userSpaceOnUse">
<stop stop-color="white"/>
<stop offset="1" stop-color="#010101"/>
</linearGradient>
<linearGradient id="paint15_linear_39_812" x1="302.63" y1="225.055" x2="426.226" y2="225.055" gradientUnits="userSpaceOnUse">
<stop stop-color="white"/>
<stop offset="1" stop-color="#010101"/>
</linearGradient>
<linearGradient id="paint16_linear_39_812" x1="317.098" y1="127.936" x2="440.672" y2="127.936" gradientUnits="userSpaceOnUse">
<stop stop-color="white"/>
<stop offset="1" stop-color="#231F20"/>
</linearGradient>
<linearGradient id="paint17_linear_39_812" x1="70.7175" y1="319.333" x2="276.831" y2="319.333" gradientUnits="userSpaceOnUse">
<stop stop-color="white"/>
<stop offset="1" stop-color="#010101"/>
</linearGradient>
<linearGradient id="paint18_linear_39_812" x1="69.8426" y1="319.333" x2="277.727" y2="319.333" gradientUnits="userSpaceOnUse">
<stop stop-color="white"/>
<stop offset="1" stop-color="#010101"/>
</linearGradient>
<linearGradient id="paint19_linear_39_812" x1="99.5678" y1="341.379" x2="262.811" y2="341.379" gradientUnits="userSpaceOnUse">
<stop stop-color="white"/>
<stop offset="1" stop-color="#010101"/>
</linearGradient>
<linearGradient id="paint20_linear_39_812" x1="97.6901" y1="341.473" x2="264.881" y2="341.473" gradientUnits="userSpaceOnUse">
<stop stop-color="white"/>
<stop offset="1" stop-color="#010101"/>
</linearGradient>
<linearGradient id="paint21_linear_39_812" x1="121.248" y1="348.772" x2="241.131" y2="348.772" gradientUnits="userSpaceOnUse">
<stop stop-color="white"/>
<stop offset="1" stop-color="#010101"/>
</linearGradient>
</defs>
</svg>
