<svg width="21" height="15" viewBox="0 0 21 15" fill="none" xmlns="http://www.w3.org/2000/svg">
<g clip-path="url(#clip0_6_270)">
<path d="M13.2812 0.74429C13.112 0.916354 13.0172 1.14799 13.0172 1.38929C13.0172 1.63059 13.112 1.86223 13.2812 2.03429L17.5312 6.31429H1.43119C1.303 6.30087 1.17341 6.31454 1.05084 6.35441C0.928262 6.39428 0.815433 6.45946 0.719663 6.54572C0.623893 6.63199 0.547319 6.73742 0.494905 6.85518C0.44249 6.97294 0.415405 7.10039 0.415405 7.22929C0.415405 7.35819 0.44249 7.48564 0.494905 7.6034C0.547319 7.72116 0.623893 7.82659 0.719663 7.91286C0.815433 7.99912 0.928262 8.0643 1.05084 8.10417C1.17341 8.14404 1.303 8.15771 1.43119 8.14429H17.5312L13.2712 12.4843C13.1044 12.6576 13.0112 12.8888 13.0112 13.1293C13.0112 13.3698 13.1044 13.601 13.2712 13.7743C13.3539 13.8571 13.4521 13.9229 13.5602 13.9677C13.6683 14.0126 13.7842 14.0356 13.9012 14.0356C14.0182 14.0356 14.1341 14.0126 14.2422 13.9677C14.3503 13.9229 14.4485 13.8571 14.5312 13.7743V13.7743L20.2712 7.88429C20.3492 7.79807 20.4133 7.70023 20.4612 7.59429C20.5093 7.48399 20.5332 7.36462 20.5312 7.24429C20.5321 7.12575 20.5097 7.00818 20.465 6.89835C20.4204 6.78852 20.3545 6.68859 20.2712 6.60429L14.5312 0.76429C14.3726 0.601964 14.1579 0.506379 13.9311 0.497085C13.7043 0.487791 13.4826 0.56549 13.3112 0.71429L13.2812 0.74429Z" fill="black"/>
</g>
<defs>
<clipPath id="clip0_6_270">
<rect width="20" height="13.5" fill="white" transform="translate(0.53125 0.484375)"/>
</clipPath>
</defs>
</svg>
