<svg width="21" height="15" viewBox="0 0 21 15" fill="none" xmlns="http://www.w3.org/2000/svg">
<g clip-path="url(#clip0_6_185)">
<path d="M13.4062 0.760037C13.237 0.932101 13.1422 1.16374 13.1422 1.40504C13.1422 1.64633 13.237 1.87797 13.4062 2.05004L17.6562 6.33004H1.55619C1.428 6.31662 1.29841 6.33028 1.17584 6.37015C1.05326 6.41002 0.940433 6.4752 0.844663 6.56147C0.748893 6.64774 0.672319 6.75317 0.619905 6.87093C0.56749 6.98868 0.540405 7.11614 0.540405 7.24504C0.540405 7.37393 0.56749 7.50139 0.619905 7.61915C0.672319 7.73691 0.748893 7.84233 0.844663 7.9286C0.940433 8.01487 1.05326 8.08005 1.17584 8.11992C1.29841 8.15979 1.428 8.17346 1.55619 8.16004H17.6562L13.3962 12.5C13.2294 12.6733 13.1362 12.9045 13.1362 13.145C13.1362 13.3856 13.2294 13.6168 13.3962 13.79C13.4789 13.8729 13.5771 13.9386 13.6852 13.9835C13.7933 14.0283 13.9092 14.0514 14.0262 14.0514C14.1432 14.0514 14.2591 14.0283 14.3672 13.9835C14.4753 13.9386 14.5735 13.8729 14.6562 13.79V13.79L20.3962 7.90004C20.4742 7.81382 20.5383 7.71598 20.5862 7.61004C20.6343 7.49973 20.6582 7.38037 20.6562 7.26004C20.6571 7.14149 20.6347 7.02393 20.59 6.9141C20.5454 6.80427 20.4795 6.70433 20.3962 6.62004L14.6562 0.780037C14.4976 0.617711 14.2829 0.522126 14.0561 0.512832C13.8293 0.503538 13.6076 0.581237 13.4362 0.730037L13.4062 0.760037Z" fill="black"/>
</g>
<defs>
<clipPath id="clip0_6_185">
<rect width="20" height="13.5" fill="white" transform="translate(0.65625 0.5)"/>
</clipPath>
</defs>
</svg>
