<svg width="17" height="12" viewBox="0 0 17 12" fill="none" xmlns="http://www.w3.org/2000/svg">
<g clip-path="url(#clip0_6_249)">
<path d="M10.8719 0.792356C10.7365 0.930007 10.6607 1.11532 10.6607 1.30836C10.6607 1.50139 10.7365 1.6867 10.8719 1.82436L14.2719 5.24836H1.39185C1.2893 5.23762 1.18563 5.24855 1.08757 5.28045C0.989509 5.31234 0.899246 5.36449 0.82263 5.4335C0.746014 5.50252 0.684755 5.58686 0.642823 5.68107C0.600892 5.77527 0.579224 5.87724 0.579224 5.98036C0.579224 6.08347 0.600892 6.18544 0.642823 6.27964C0.684755 6.37385 0.746014 6.45819 0.82263 6.52721C0.899246 6.59622 0.989509 6.64837 1.08757 6.68026C1.18563 6.71216 1.2893 6.72309 1.39185 6.71236H14.2719L10.8639 10.1844C10.7304 10.323 10.6558 10.5079 10.6558 10.7004C10.6558 10.8928 10.7304 11.0777 10.8639 11.2164C10.93 11.2826 11.0085 11.3352 11.095 11.3711C11.1815 11.407 11.2742 11.4254 11.3679 11.4254C11.4615 11.4254 11.5542 11.407 11.6407 11.3711C11.7272 11.3352 11.8057 11.2826 11.8719 11.2164V11.2164L16.4639 6.50436C16.5263 6.43538 16.5775 6.35711 16.6159 6.27236C16.6544 6.18411 16.6735 6.08862 16.6719 5.99236C16.6726 5.89752 16.6546 5.80347 16.6189 5.7156C16.5832 5.62774 16.5305 5.54779 16.4639 5.48036L11.8719 0.808356C11.7449 0.678495 11.5732 0.602027 11.3918 0.594592C11.2104 0.587157 11.033 0.649316 10.8959 0.768356L10.8719 0.792356Z" fill="white"/>
</g>
<defs>
<clipPath id="clip0_6_249">
<rect width="16" height="10.8" fill="white" transform="translate(0.671875 0.584473)"/>
</clipPath>
</defs>
</svg>
