<svg width="41" height="14" viewBox="0 0 41 14" fill="none" xmlns="http://www.w3.org/2000/svg">
<g clip-path="url(#clip0_6_23)">
<path d="M13.4062 0.510007C13.237 0.68207 13.1422 0.913709 13.1422 1.15501C13.1422 1.3963 13.237 1.62794 13.4062 1.80001L17.6562 6.08001H1.55619C1.428 6.06659 1.29841 6.08025 1.17584 6.12012C1.05326 6.15999 0.940433 6.22517 0.844663 6.31144C0.748893 6.39771 0.672319 6.50314 0.619905 6.6209C0.56749 6.73865 0.540405 6.86611 0.540405 6.99501C0.540405 7.1239 0.56749 7.25136 0.619905 7.36912C0.672319 7.48687 0.748893 7.5923 0.844663 7.67857C0.940433 7.76484 1.05326 7.83002 1.17584 7.86989C1.29841 7.90976 1.428 7.92343 1.55619 7.91001H17.6562L13.3962 12.25C13.2294 12.4233 13.1362 12.6545 13.1362 12.895C13.1362 13.1355 13.2294 13.3667 13.3962 13.54C13.4789 13.6229 13.5771 13.6886 13.6852 13.7334C13.7933 13.7783 13.9092 13.8014 14.0262 13.8014C14.1432 13.8014 14.2591 13.7783 14.3672 13.7334C14.4753 13.6886 14.5735 13.6229 14.6562 13.54V13.54L20.3962 7.65001C20.4742 7.56379 20.5383 7.46595 20.5862 7.36001C20.6343 7.2497 20.6582 7.13034 20.6562 7.01001C20.6571 6.89146 20.6347 6.7739 20.59 6.66407C20.5454 6.55424 20.4795 6.4543 20.3962 6.37001L14.6562 0.530007C14.4976 0.367681 14.2829 0.272096 14.0561 0.262802C13.8293 0.253507 13.6076 0.331206 13.4362 0.480007L13.4062 0.510007Z" fill="black"/>
</g>
<defs>
<clipPath id="clip0_6_23">
<rect width="20" height="13.5" fill="white" transform="translate(0.65625 0.25)"/>
</clipPath>
</defs>
</svg>
