<svg width="37" height="37" viewBox="0 0 37 37" fill="none" xmlns="http://www.w3.org/2000/svg">
<g clip-path="url(#clip0_6_317)">
<path d="M32.7337 0.515625H4.45375C3.43001 0.515625 2.44821 0.922302 1.72432 1.64619C1.00043 2.37008 0.59375 3.35189 0.59375 4.37562L0.59375 32.6556C0.59375 33.6794 1.00043 34.6612 1.72432 35.3851C2.44821 36.1089 3.43001 36.5156 4.45375 36.5156H15.4537V24.2756H10.4137V18.5156H15.4838V14.1256C15.4838 9.12562 18.4837 6.37563 23.0037 6.37563C24.5013 6.39541 25.9954 6.52576 27.4737 6.76562V11.6656H24.9538C22.4838 11.6656 21.7038 13.1956 21.7038 14.7756V18.5156H27.2337L26.3538 24.2756H21.7038V36.5156H32.7038C33.2132 36.5196 33.7183 36.4227 34.1901 36.2305C34.6619 36.0382 35.091 35.7545 35.4526 35.3957C35.8142 35.0369 36.1012 34.61 36.2971 34.1397C36.4929 33.6695 36.5938 33.1651 36.5938 32.6556V4.37562C36.5938 3.35189 36.1871 2.37008 35.4632 1.64619C34.7393 0.922302 33.7575 0.515625 32.7337 0.515625V0.515625Z" fill="white"/>
</g>
<defs>
<clipPath id="clip0_6_317">
<rect width="36" height="36" fill="white" transform="translate(0.59375 0.515625)"/>
</clipPath>
</defs>
</svg>
