<svg width="37" height="37" viewBox="0 0 37 37" fill="none" xmlns="http://www.w3.org/2000/svg">
<g clip-path="url(#clip0_6_320)">
<path d="M32.3275 36.5156H4.0475C3.02376 36.5156 2.04196 36.1089 1.31807 35.3851C0.594177 34.6612 0.1875 33.6794 0.1875 32.6556L0.1875 4.37562C0.1875 3.35189 0.594177 2.37008 1.31807 1.64619C2.04196 0.922302 3.02376 0.515625 4.0475 0.515625H32.3275C33.3512 0.515625 34.333 0.922302 35.0569 1.64619C35.7808 2.37008 36.1875 3.35189 36.1875 4.37562V32.6556C36.1875 33.6794 35.7808 34.6612 35.0569 35.3851C34.333 36.1089 33.3512 36.5156 32.3275 36.5156ZM17.8275 9.65563C17.7475 9.65563 10.3475 9.65563 8.5075 10.1556C8.00108 10.2935 7.5397 10.5619 7.16945 10.9339C6.79919 11.3059 6.53302 11.7686 6.3975 12.2756C6.0566 14.1832 5.88925 16.1178 5.8975 18.0556C5.88881 19.9935 6.05616 21.9281 6.3975 23.8356C6.53757 24.3372 6.80577 24.7936 7.17573 25.16C7.54569 25.5265 8.00466 25.7903 8.5075 25.9256C10.3475 26.4256 17.7475 26.4256 17.8275 26.4256C17.9075 26.4256 25.3075 26.4256 27.1375 25.9256C27.6431 25.7959 28.105 25.5339 28.4758 25.1666C28.8466 24.7993 29.113 24.3399 29.2475 23.8356C29.5937 21.9287 29.7611 19.9937 29.7475 18.0556C29.7613 16.1209 29.5939 14.1891 29.2475 12.2856C29.1179 11.7826 28.8599 11.3219 28.4988 10.9485C28.1377 10.5752 27.6859 10.302 27.1875 10.1556C25.3075 9.66563 17.8975 9.65563 17.8275 9.65563ZM15.3875 21.6556V14.5156L21.6175 18.0656L15.3875 21.6056V21.6556Z" fill="white"/>
</g>
<defs>
<clipPath id="clip0_6_320">
<rect width="36" height="36" fill="white" transform="translate(0.1875 0.515625)"/>
</clipPath>
</defs>
</svg>
